<svg width="52" height="30" viewBox="0 0 52 30" fill="none" xmlns="http://www.w3.org/2000/svg">
<path fill-rule="evenodd" clip-rule="evenodd" d="M0.55303 0.0940997C0.468007 0.178855 0.458567 1.0678 0.458567 8.9847C0.458567 16.9016 0.468007 17.7905 0.55303 17.8753C0.634446 17.9563 0.880015 17.9694 2.32258 17.9694C3.76515 17.9694 4.01072 17.9563 4.09213 17.8753C4.17655 17.7911 4.18672 17.2258 4.1875 12.5593C4.18804 9.67927 4.21203 7.30037 4.24107 7.25472C4.2828 7.18914 4.31329 7.20177 4.38827 7.3157C4.44022 7.39477 5.22906 9.79051 6.14117 12.6396C7.15609 15.81 7.83796 17.8487 7.89863 17.8945C7.97343 17.9511 8.50245 17.9694 10.0564 17.9694C11.8478 17.9694 12.1274 17.9572 12.2096 17.8753C12.2946 17.7905 12.3041 16.9016 12.3041 8.9847C12.3041 1.0678 12.2946 0.178855 12.2096 0.0940997C12.1281 0.0129978 11.8799 0 10.41 0C8.94007 0 8.69186 0.0129978 8.61038 0.0940997C8.52596 0.178256 8.5158 0.743633 8.51502 5.41005C8.51448 8.29012 8.49049 10.669 8.46144 10.7147C8.42001 10.7798 8.38742 10.7649 8.30793 10.644C8.25243 10.5596 7.45331 8.16505 6.53213 5.32271C5.42202 1.89751 4.82138 0.128721 4.75097 0.077448C4.66908 0.0177897 4.18515 0 2.64608 0C0.909418 0 0.635167 0.0123389 0.55303 0.0940997ZM16.5488 0.13477C16.5008 0.208924 15.6736 4.15093 14.7108 8.89485C13.7478 13.6388 12.9458 17.5769 12.9283 17.6463C12.9099 17.72 12.9378 17.8135 12.9955 17.8709C13.0832 17.9583 13.3173 17.9694 15.07 17.9694C16.786 17.9694 17.0582 17.957 17.1402 17.8753C17.1922 17.8235 17.2344 17.7629 17.234 17.7405C17.2337 17.7181 17.359 16.8912 17.5126 15.9029C17.6969 14.7166 17.8229 14.0703 17.8833 14.0012C17.9659 13.9066 18.1208 13.8963 19.4645 13.8963C20.7386 13.8963 20.9678 13.9099 21.0487 13.9904C21.1006 14.0422 21.1431 14.1074 21.1431 14.1353C21.1431 14.1632 21.2511 14.9093 21.383 15.7932C21.515 16.6772 21.6378 17.4871 21.656 17.5931C21.6741 17.6991 21.7305 17.8271 21.7812 17.8776C21.8601 17.9563 22.1514 17.9694 23.8183 17.9694C24.888 17.9694 25.806 17.953 25.8584 17.933C25.9137 17.9119 25.9535 17.8267 25.9535 17.7296C25.9535 17.6377 25.1576 13.646 24.1849 8.85915C22.7791 1.94111 22.3944 0.139802 22.3094 0.0778673C22.2253 0.0166516 21.6082 0 19.4193 0H16.6362L16.5488 0.13477ZM26.6492 0.0940997C26.5642 0.178855 26.5548 1.0678 26.5548 8.9847C26.5548 17.0172 26.5633 17.7896 26.6523 17.8783C26.7408 17.9664 27.1363 17.9735 30.9065 17.9553C34.9845 17.9356 35.0722 17.9327 35.5441 17.8022C35.8087 17.729 36.2011 17.5838 36.416 17.4794C36.6586 17.3616 36.9497 17.1477 37.1833 16.9157C37.4442 16.6565 37.6237 16.4069 37.7681 16.1025C37.8828 15.861 38.022 15.4746 38.0776 15.244C38.1673 14.8719 38.1815 14.2288 38.2031 9.52378C38.2182 6.22646 38.2045 3.97375 38.1667 3.56393C38.1333 3.20155 38.0497 2.72428 37.9809 2.50338C37.9122 2.28247 37.7203 1.89972 37.5546 1.65283C37.3804 1.39353 37.1082 1.08936 36.9097 0.932432C36.7209 0.783046 36.404 0.58161 36.2056 0.484814C36.0071 0.388019 35.6824 0.267265 35.484 0.216591C35.2856 0.165857 34.8797 0.0966155 34.5821 0.0627132C34.2691 0.027014 32.5019 0.000778639 30.3923 0.000479149C27.1552 5.98632e-05 26.7331 0.0106019 26.6492 0.0940997ZM41.8461 0.0385742C41.8066 0.054567 41.7472 0.153519 41.714 0.25846C41.6809 0.363401 40.8631 4.34931 39.8966 9.11605C38.4316 16.3417 38.1523 17.7984 38.2171 17.8761C38.2845 17.9571 38.5547 17.9694 40.2602 17.9694C41.8215 17.9694 42.2486 17.9527 42.3373 17.888C42.4291 17.8211 42.5005 17.4812 42.7366 15.9862C42.8948 14.985 43.0256 14.1476 43.0273 14.1252C43.0289 14.1029 43.0728 14.0422 43.1247 13.9904C43.2055 13.91 43.4319 13.8963 44.6766 13.8963C45.8147 13.8963 46.1587 13.9143 46.2465 13.9783C46.3401 14.0464 46.4065 14.3757 46.6412 15.9352C46.8722 17.4695 46.9433 17.8246 47.0327 17.8898C47.1184 17.9521 47.5674 17.9694 49.1075 17.9694C50.8188 17.9694 51.083 17.9572 51.1511 17.8755C51.2166 17.7969 50.9422 16.3656 49.4659 9.08551C48.4959 4.30259 47.6777 0.322491 47.6475 0.24079C47.6173 0.159149 47.5605 0.0719374 47.5212 0.0470798C47.4819 0.0221622 46.2051 0.00353397 44.6838 0.0056304C43.1625 0.00772683 41.8856 0.0225216 41.8461 0.0385742ZM33.0187 3.28714C33.151 3.34758 33.3322 3.47055 33.4214 3.5604C33.5106 3.65024 33.6264 3.85204 33.6787 4.00885C33.7628 4.26108 33.7718 4.85257 33.757 9.14007L33.7402 13.9862L33.5931 14.2421C33.4844 14.4313 33.3618 14.5391 33.1234 14.6553C32.8337 14.7965 32.7134 14.8155 31.9448 14.8415C31.1942 14.8669 31.0762 14.8578 30.9864 14.7684C30.8915 14.6738 30.8841 14.2573 30.8841 9.01465C30.8841 3.9565 30.894 3.35297 30.9786 3.26869C31.0558 3.19184 31.2295 3.17483 31.9256 3.17591C32.6232 3.17699 32.8219 3.19723 33.0187 3.28714ZM44.8279 3.90834C44.8559 3.98244 45.1026 5.5317 45.376 7.35116C45.7824 10.0548 45.8594 10.6758 45.7974 10.7504C45.735 10.8252 45.5455 10.8415 44.7409 10.8415C43.9163 10.8415 43.7449 10.8261 43.6628 10.7443C43.6 10.6817 43.5768 10.5909 43.5979 10.4897C43.6159 10.4032 43.8477 8.90797 44.1131 7.16703C44.3784 5.4261 44.6232 3.95039 44.6568 3.88762C44.6906 3.82491 44.7314 3.77357 44.7476 3.77357C44.7637 3.77357 44.7999 3.83425 44.8279 3.90834ZM19.6321 4.05809C19.6635 4.18166 19.9002 5.70594 20.1582 7.4455C20.5092 9.81171 20.6112 10.6339 20.563 10.7099C20.5066 10.7989 20.3732 10.8116 19.4896 10.8116C18.605 10.8116 18.4725 10.799 18.4159 10.7097C18.3675 10.6332 18.4764 9.78997 18.8528 7.32546C19.1285 5.5202 19.3788 3.99597 19.4089 3.93829C19.439 3.88061 19.4888 3.83347 19.5194 3.83347C19.55 3.83347 19.6007 3.93458 19.6321 4.05809ZM11.9734 19.2913C11.4442 19.3164 10.6054 19.3813 10.1094 19.4354C9.61328 19.4895 8.81507 19.6003 8.33553 19.6816C7.856 19.7629 6.97661 19.9489 6.38132 20.095C5.78604 20.241 4.85812 20.5098 4.31924 20.6922C3.78036 20.8746 3.07685 21.1347 2.75588 21.2702C2.4349 21.4057 1.8279 21.6904 1.40705 21.903C0.986203 22.1155 0.587064 22.3588 0.52014 22.4436C0.406074 22.5881 0.398438 22.683 0.398438 23.9624C0.398438 24.7129 0.414853 25.3697 0.434936 25.4218C0.455019 25.4739 0.506911 25.5165 0.550204 25.5165C0.593558 25.5165 0.935635 25.3562 1.31042 25.1602C1.68521 24.9642 2.30304 24.6711 2.68336 24.5089C3.06368 24.3468 3.7325 24.0904 4.16964 23.9391C4.60678 23.7879 5.36441 23.5561 5.85327 23.424C6.34212 23.2919 7.14797 23.1032 7.64404 23.0046C8.14011 22.9061 8.95186 22.7724 9.44793 22.7077C9.944 22.6429 10.7738 22.5576 11.2919 22.5181C11.8952 22.4721 12.9114 22.4577 14.118 22.4779C15.1542 22.4953 16.4485 22.5533 16.9942 22.6068C17.5399 22.6602 18.514 22.773 19.1588 22.8575C19.8037 22.9419 20.9808 23.1174 21.7745 23.2477C22.5682 23.3779 24.6315 23.7404 26.3597 24.0533C28.0878 24.3661 30.1713 24.7276 30.9896 24.8565C31.808 24.9854 33.0322 25.16 33.7102 25.2444C34.3881 25.3288 35.3893 25.4397 35.935 25.4908C36.4807 25.542 37.8606 25.5991 39.0016 25.6177C40.3504 25.6398 41.4021 25.6269 42.0081 25.5811C42.5207 25.5423 43.2512 25.4705 43.6316 25.4215C44.0119 25.3725 44.6582 25.2652 45.0679 25.1829C45.4776 25.1006 46.1135 24.9503 46.481 24.8487C46.8484 24.7472 47.4554 24.5463 47.8297 24.4022C48.204 24.2581 48.7478 24.0181 49.0382 23.8687C49.3285 23.7194 49.7527 23.4728 49.981 23.3207C50.2094 23.1688 50.5529 22.9095 50.7446 22.7448C50.9363 22.5799 51.1325 22.3693 51.1806 22.2767C51.2498 22.1434 51.268 21.8143 51.268 20.6958C51.268 19.5245 51.2533 19.2777 51.1818 19.2504C51.1312 19.2311 50.9282 19.3589 50.691 19.5593C50.4685 19.7473 50.0812 20.0353 49.8302 20.1992C49.5793 20.363 49.0708 20.6438 48.7002 20.8232C48.3297 21.0026 47.6262 21.2804 47.1369 21.4407C46.6475 21.6008 45.9225 21.8042 45.5256 21.8926C45.1288 21.9809 44.3711 22.116 43.842 22.1925C43.3129 22.2691 42.3933 22.3649 41.7986 22.4054C41.0969 22.4532 40.0943 22.4666 38.9425 22.4437C37.9663 22.4242 36.6941 22.3661 36.1154 22.3145C35.5366 22.2629 34.5219 22.1534 33.8605 22.0711C33.1991 21.9888 32.0356 21.8255 31.2749 21.7082C30.5143 21.591 28.4173 21.2288 26.6149 20.9034C24.8125 20.5781 22.7696 20.2174 22.0751 20.1019C21.3806 19.9864 20.3244 19.8239 19.7279 19.7408C19.1314 19.6576 18.1167 19.5358 17.4731 19.4701C16.8294 19.4045 15.6668 19.323 14.8896 19.2891C14.1125 19.2552 13.3548 19.2316 13.206 19.2365C13.0572 19.2414 12.5025 19.2661 11.9734 19.2913ZM50.7152 23.9202C50.5066 24.0964 50.1492 24.3654 49.9209 24.5179C49.6926 24.6704 49.2732 24.9147 48.9889 25.0608C48.7046 25.207 48.2654 25.4082 48.013 25.508C47.7605 25.6078 47.3005 25.7706 46.9908 25.8698C46.681 25.9689 46.157 26.1166 45.8263 26.1979C45.4956 26.2793 44.995 26.3872 44.7139 26.4377C44.4328 26.4881 43.9051 26.5695 43.5414 26.6184C43.1776 26.6672 42.4356 26.7395 41.8926 26.7789C41.2564 26.8252 40.2301 26.8387 39.0064 26.8169C37.962 26.7984 36.634 26.7398 36.0552 26.6869C35.4765 26.6341 34.6647 26.5506 34.2514 26.5016C33.838 26.4526 33.1074 26.3576 32.6279 26.2907C32.1483 26.2238 31.1066 26.0614 30.3129 25.9298C29.5192 25.7983 27.5304 25.4479 25.8933 25.1512C24.2563 24.8544 22.254 24.5061 21.4438 24.3773C20.6335 24.2484 19.4294 24.0766 18.768 23.9955C18.1066 23.9144 17.1866 23.8124 16.7236 23.7688C16.18 23.7177 15.0191 23.6904 13.4465 23.6919C11.3223 23.6939 10.8769 23.7108 9.95903 23.8239C9.38028 23.8953 8.52795 24.0232 8.06495 24.1082C7.60195 24.1932 6.84192 24.3559 6.37597 24.4697C5.91009 24.5835 5.17952 24.7874 4.75248 24.9227C4.3255 25.058 3.59733 25.317 3.13433 25.4983C2.67133 25.6796 1.91929 26.0179 1.46309 26.2501C1.00695 26.4823 0.58075 26.7394 0.516051 26.8213C0.406795 26.9597 0.398438 27.0716 0.398438 28.4016C0.398438 29.6193 0.411906 29.8381 0.488692 29.8675C0.538419 29.8865 1.04507 29.6723 1.61612 29.391C2.18657 29.11 3.04564 28.7316 3.52517 28.5502C4.0047 28.3687 4.81645 28.0997 5.32906 27.9524C5.84166 27.8049 6.57957 27.6135 6.96879 27.5269C7.35807 27.4402 8.06699 27.3035 8.54418 27.2229C9.02143 27.1424 9.82584 27.0293 10.3318 26.9716C11.0519 26.8895 11.7483 26.8668 13.5367 26.8671C15.2697 26.8674 16.0759 26.8928 16.8739 26.9722C17.4527 27.0299 18.3591 27.1322 18.8883 27.1997C19.4174 27.2672 20.4361 27.4136 21.1521 27.5251C21.8681 27.6366 23.9516 27.9977 25.782 28.3275C27.6126 28.6573 29.7597 29.0335 30.5534 29.1635C31.3471 29.2935 32.5241 29.4691 33.169 29.5539C33.8139 29.6387 34.7339 29.7477 35.2134 29.7963C35.693 29.8448 36.5652 29.9157 37.1517 29.9539C37.8164 29.9971 39.0055 30.0111 40.3085 29.9909C41.6709 29.9698 42.6606 29.9255 43.1505 29.8637C43.5639 29.8115 44.1457 29.7275 44.4433 29.6771C44.7409 29.6267 45.2956 29.5166 45.676 29.4325C46.0563 29.3483 46.7327 29.1592 47.1792 29.0122C47.6257 28.8651 48.3211 28.5867 48.7245 28.3934C49.1279 28.2001 49.642 27.9232 49.8669 27.778C50.0919 27.6329 50.447 27.3719 50.6562 27.1982C50.8653 27.0245 51.0885 26.7975 51.152 26.6936C51.257 26.5221 51.2676 26.3807 51.2678 25.1471C51.2679 24.4003 51.2516 23.7467 51.2315 23.6946C51.2114 23.6425 51.1724 23.5998 51.1447 23.5998C51.1171 23.5998 50.9238 23.744 50.7152 23.9202Z" fill="#98A2B3"/>
</svg>
