<svg width="157" height="13" viewBox="0 0 157 13" fill="none" xmlns="http://www.w3.org/2000/svg">
<g clip-path="url(#clip0_177_10477)">
<path d="M6.91662 13C2.9492 13 0 10.1444 0 6.53634V6.50214C0 2.92831 2.88957 0 7.03129 0C9.57228 0 11.095 0.790858 12.3472 1.94081L10.4575 3.97139C9.41633 3.09076 8.35682 2.55212 7.00836 2.55212C4.73339 2.55212 3.09597 4.31338 3.09597 6.46794V6.50214C3.09597 8.65669 4.6967 10.4522 7.00836 10.4522C8.54946 10.4522 9.4943 9.87932 10.5538 8.98159L12.4435 10.7599C11.0583 12.1407 9.51265 13.0043 6.91204 13.0043L6.91662 13Z" fill="#98A2B3"/>
<path d="M17.1265 12.7864V0.213867H20.094V10.2727H26.818V12.7864H17.1265Z" fill="#98A2B3"/>
<path d="M41.3988 12.7863L40.165 9.96486H34.4639L33.23 12.7863H30.2029L35.9866 0.124023H38.7248L44.504 12.7863H41.4034H41.3988ZM37.3121 3.4499L35.5188 7.52817H39.1009L37.3076 3.4499H37.3121Z" fill="#98A2B3"/>
<path d="M53.4938 12.9658C51.4527 12.9658 49.3887 12.3032 47.7697 10.9566L49.5217 8.99866C50.7372 9.9306 52.0077 10.5248 53.5488 10.5248C54.7642 10.5248 55.4935 10.0759 55.4935 9.34066V9.30646C55.4935 8.60537 55.0303 8.24628 52.7782 7.70764C50.063 7.06213 48.3063 6.36105 48.3063 3.8645V3.8303C48.3109 1.54322 50.2785 0.0341797 53.0351 0.0341797C54.9982 0.0341797 56.6769 0.607018 58.0437 1.633L56.5026 3.71488C55.3101 2.94112 54.1313 2.47515 52.9938 2.47515C51.8563 2.47515 51.2601 2.95822 51.2601 3.56953V3.60373C51.2601 4.42879 51.838 4.69811 54.168 5.25384C56.9062 5.91646 58.4473 6.83556 58.4473 9.02431V9.05851C58.4473 11.5551 56.4063 12.9572 53.4938 12.9572V12.9658Z" fill="#98A2B3"/>
<path d="M67.9416 12.966C65.9006 12.966 63.8366 12.3034 62.2175 10.9568L63.9696 8.9989C65.1851 9.93083 66.4556 10.525 67.9967 10.525C69.2121 10.525 69.9414 10.0762 69.9414 9.3409V9.3067C69.9414 8.60561 69.4782 8.24652 67.2261 7.70788C64.5108 7.06237 62.7542 6.36129 62.7542 3.86474V3.83054C62.7542 1.55201 64.7172 0.0429688 67.4738 0.0429688C69.4369 0.0429688 71.1156 0.615807 72.4824 1.64179L70.9413 3.72367C69.7488 2.94991 68.57 2.48394 67.4325 2.48394C66.295 2.48394 65.6988 2.96701 65.6988 3.57832V3.61252C65.6988 4.43758 66.2767 4.7069 68.6067 5.26263C71.3403 5.92524 72.886 6.84435 72.886 9.0331V9.0673C72.886 11.5639 70.845 12.966 67.9325 12.966H67.9416Z" fill="#98A2B3"/>
<path d="M77.9221 12.7864V0.213867H80.8897V12.7864H77.9221Z" fill="#98A2B3"/>
<path d="M92.8882 13C88.9208 13 85.9716 10.1444 85.9716 6.53634V6.50214C85.9716 2.92831 88.8612 0 93.0029 0C95.5439 0 97.0667 0.790858 98.3188 1.94081L96.4291 3.97139C95.388 3.09076 94.3284 2.55212 92.98 2.55212C90.705 2.55212 89.0676 4.31338 89.0676 6.46794V6.50214C89.0676 8.65669 90.6683 10.4522 92.98 10.4522C94.5211 10.4522 95.4659 9.87932 96.5254 8.98159L98.4151 10.7599C97.03 12.1407 95.4843 13.0043 92.8837 13.0043L92.8882 13Z" fill="#98A2B3"/>
<path d="M103.061 12.7864V11.2603H104.332V12.7864H103.061Z" fill="#98A2B3"/>
<path d="M115.564 13C111.712 13 108.859 10.1444 108.859 6.53634V6.50214C108.859 2.94541 111.712 0 115.601 0C118.009 0 119.454 0.825057 120.844 2.00921L120.133 2.69319C118.959 1.63302 117.61 0.842157 115.587 0.842157C112.349 0.842157 109.905 3.30451 109.905 6.46366V6.49786C109.905 9.6784 112.391 12.1536 115.606 12.1536C117.55 12.1536 118.881 11.4525 120.247 10.1957L120.922 10.807C119.495 12.1194 117.954 12.9957 115.564 12.9957V13Z" fill="#98A2B3"/>
<path d="M131.764 13C127.678 13 124.999 9.96481 124.999 6.53634V6.50214C124.999 3.07366 127.714 0 131.801 0C135.888 0 138.562 3.03519 138.562 6.46366C138.562 6.46366 138.562 6.47506 138.562 6.49786C138.562 9.92634 135.846 13 131.76 13H131.764ZM137.525 6.49786C137.525 3.39 135.099 0.842157 131.764 0.842157C128.43 0.842157 126.04 3.3558 126.04 6.46366V6.49786C126.04 9.60572 128.467 12.1536 131.801 12.1536C135.136 12.1536 137.525 9.63992 137.525 6.53206V6.49786Z" fill="#98A2B3"/>
<path d="M156 12.7864V1.86826L150.661 9.10568H150.583L145.245 1.86826V12.7864H144.281V0.213867H145.226L150.638 7.64793L156.055 0.213867H157V12.7864H156Z" fill="#98A2B3"/>
</g>
<defs>
<clipPath id="clip0_177_10477">
<rect width="157" height="13" fill="white"/>
</clipPath>
</defs>
</svg>
