<svg width="243" height="20" viewBox="0 0 243 20" fill="none" xmlns="http://www.w3.org/2000/svg">
<g clip-path="url(#clip0_948_37101)">
<path d="M11.3717 20C5.26794 20 0.730713 15.6067 0.730713 10.0559V10.0033C0.730713 4.5051 5.17621 0 11.5481 0C15.4573 0 17.8 1.2167 19.7264 2.98586L16.8192 6.10983C15.2174 4.75501 13.5874 3.92634 11.5128 3.92634C8.01285 3.92634 5.49374 6.63597 5.49374 9.95067V10.0033C5.49374 13.318 7.9564 16.0802 11.5128 16.0802C13.8837 16.0802 15.3373 15.1989 16.9673 13.8178L19.8746 16.5538C17.7435 18.6781 15.3656 20.0066 11.3646 20.0066L11.3717 20Z" fill="black"/>
<path d="M27.0791 19.6712V0.328857H31.6446V15.804H41.9891V19.6712H27.0791Z" fill="black"/>
<path d="M64.4213 19.6712L62.5231 15.3305H53.7521L51.854 19.6712H47.1968L56.0948 0.190735H60.3075L69.1984 19.6712H64.4284H64.4213ZM58.1341 5.30747L55.3751 11.5817H60.8861L58.127 5.30747H58.1341Z" fill="black"/>
<path d="M83.0287 19.9474C79.8886 19.9474 76.7133 18.928 74.2224 16.8563L76.9179 13.8441C78.7879 15.2779 80.7425 16.192 83.1134 16.192C84.9833 16.192 86.1053 15.5015 86.1053 14.3703V14.3177C86.1053 13.2391 85.3926 12.6866 81.9279 11.8579C77.7506 10.8648 75.048 9.78625 75.048 5.94541V5.8928C75.0551 2.37422 78.0822 0.0526123 82.3231 0.0526123C85.3432 0.0526123 87.9258 0.933901 90.0286 2.51233L87.6577 5.71522C85.823 4.52483 84.0096 3.80796 82.2596 3.80796C80.5096 3.80796 79.5923 4.55113 79.5923 5.49161V5.54423C79.5923 6.81355 80.4814 7.22788 84.066 8.08287C88.2786 9.10227 90.6496 10.5163 90.6496 13.8836V13.9362C90.6496 17.777 87.5095 19.9342 83.0287 19.9342V19.9474Z" fill="black"/>
<path d="M105.256 19.9474C102.116 19.9474 98.9408 18.928 96.45 16.8563L99.1455 13.8442C101.015 15.2779 102.97 16.1921 105.341 16.1921C107.211 16.1921 108.333 15.5015 108.333 14.3703V14.3177C108.333 13.2391 107.62 12.6866 104.155 11.858C99.9781 10.8649 97.2756 9.78628 97.2756 5.94544V5.89283C97.2756 2.3874 100.296 0.0657959 104.537 0.0657959C107.557 0.0657959 110.139 0.947085 112.242 2.52551L109.871 5.72841C108.036 4.53801 106.223 3.82114 104.473 3.82114C102.723 3.82114 101.806 4.56432 101.806 5.5048V5.55741C101.806 6.82673 102.695 7.24107 106.279 8.09605C110.485 9.11545 112.863 10.5295 112.863 13.8968V13.9494C112.863 17.7902 109.723 19.9474 105.242 19.9474H105.256Z" fill="black"/>
<path d="M120.611 19.6712V0.328857H125.176V19.6712H120.611Z" fill="black"/>
<path d="M143.636 20C137.532 20 132.995 15.6067 132.995 10.0559V10.0033C132.995 4.5051 137.44 0 143.812 0C147.721 0 150.064 1.2167 151.99 2.98586L149.083 6.10983C147.481 4.75501 145.851 3.92634 143.777 3.92634C140.277 3.92634 137.758 6.63597 137.758 9.95067V10.0033C137.758 13.318 140.22 16.0802 143.777 16.0802C146.148 16.0802 147.601 15.1989 149.231 13.8178L152.138 16.5538C150.007 18.6781 147.629 20.0066 143.629 20.0066L143.636 20Z" fill="black"/>
<path d="M159.287 19.6712V17.3232H161.241V19.6712H159.287Z" fill="black"/>
<path d="M178.522 20C172.595 20 168.206 15.6067 168.206 10.0559V10.0033C168.206 4.5314 172.595 0 178.579 0C182.283 0 184.506 1.26932 186.644 3.09109L185.55 4.14337C183.744 2.51233 181.669 1.29563 178.557 1.29563C173.576 1.29563 169.815 5.08385 169.815 9.9441V9.99671C169.815 14.8898 173.639 18.6978 178.586 18.6978C181.578 18.6978 183.624 17.6192 185.727 15.6856L186.764 16.6261C184.569 18.6452 182.199 19.9934 178.522 19.9934V20Z" fill="black"/>
<path d="M203.445 20C197.158 20 193.037 15.3305 193.037 10.0559V10.0033C193.037 4.72871 197.214 0 203.502 0C209.789 0 213.903 4.66952 213.903 9.9441C213.903 9.9441 213.903 9.96164 213.903 9.99671C213.903 15.2713 209.725 20 203.438 20H203.445ZM212.308 9.99671C212.308 5.21539 208.575 1.29563 203.445 1.29563C198.315 1.29563 194.639 5.16278 194.639 9.9441V9.99671C194.639 14.778 198.372 18.6978 203.502 18.6978C208.632 18.6978 212.308 14.8306 212.308 10.0493V9.99671Z" fill="black"/>
<path d="M240.731 19.6712V2.87407L232.517 14.0086H232.397L224.184 2.87407V19.6712H222.702V0.328857H224.156L232.482 11.7659L240.816 0.328857H242.269V19.6712H240.731Z" fill="black"/>
</g>
<defs>
<clipPath id="clip0_948_37101">
<rect width="241.538" height="20" fill="white" transform="translate(0.730713)"/>
</clipPath>
</defs>
</svg>
