<svg width="39" height="23" viewBox="0 0 39 23" fill="none" xmlns="http://www.w3.org/2000/svg">
<path fill-rule="evenodd" clip-rule="evenodd" d="M0.118521 0.0721431C0.0533368 0.137122 0.0460993 0.818648 0.0460993 6.88827C0.0460993 12.9579 0.0533368 13.6394 0.118521 13.7044C0.18094 13.7665 0.369209 13.7765 1.47518 13.7765C2.58115 13.7765 2.76941 13.7665 2.83183 13.7044C2.89656 13.6399 2.90435 13.2064 2.90495 9.62883C2.90536 7.42078 2.92376 5.59695 2.94602 5.56195C2.97801 5.51167 3.00139 5.52136 3.05887 5.6087C3.0987 5.66932 3.70348 7.50605 4.40276 9.69032C5.18087 12.121 5.70363 13.684 5.75015 13.7191C5.8075 13.7625 6.21308 13.7765 7.40447 13.7765C8.77781 13.7765 8.99217 13.7672 9.05524 13.7044C9.12042 13.6394 9.12766 12.9579 9.12766 6.88827C9.12766 0.818648 9.12042 0.137122 9.05524 0.0721431C8.99277 0.00996499 8.80247 0 7.67553 0C6.54859 0 6.35829 0.00996499 6.29583 0.0721431C6.2311 0.136663 6.22331 0.570119 6.22271 4.1477C6.2223 6.35576 6.2039 8.17959 6.18164 8.21458C6.14988 8.26454 6.12489 8.25306 6.06395 8.16039C6.0214 8.09569 5.40874 6.25987 4.7025 4.08075C3.85141 1.45476 3.39093 0.0986859 3.33694 0.0593768C3.27416 0.0136387 2.90315 0 1.72319 0C0.391752 0 0.181493 0.00945985 0.118521 0.0721431ZM12.3819 0.103324C12.3451 0.160175 11.711 3.18238 10.9728 6.81939C10.2345 10.4564 9.61963 13.4757 9.60626 13.5288C9.59211 13.5853 9.61355 13.657 9.65775 13.701C9.72497 13.768 9.90443 13.7765 11.2482 13.7765C12.5638 13.7765 12.7725 13.767 12.8354 13.7044C12.8752 13.6647 12.9076 13.6182 12.9073 13.6011C12.907 13.5839 13.0031 12.9499 13.1208 12.1922C13.2622 11.2827 13.3587 10.7873 13.4051 10.7342C13.4684 10.6617 13.5871 10.6539 14.6173 10.6539C15.5941 10.6539 15.7699 10.6643 15.8318 10.726C15.8717 10.7657 15.9043 10.8157 15.9043 10.8371C15.9043 10.8585 15.987 11.4305 16.0882 12.1082C16.1894 12.7858 16.2835 13.4068 16.2974 13.4881C16.3114 13.5693 16.3546 13.6675 16.3934 13.7062C16.4539 13.7665 16.6773 13.7765 17.9552 13.7765C18.7753 13.7765 19.4792 13.764 19.5193 13.7487C19.5617 13.7325 19.5922 13.6672 19.5922 13.5927C19.5922 13.5222 18.982 10.4619 18.2363 6.79202C17.1585 1.48819 16.8635 0.107181 16.7984 0.0596983C16.7339 0.0127662 16.2608 0 14.5827 0H12.4489L12.3819 0.103324ZM20.1256 0.0721431C20.0604 0.137122 20.0532 0.818648 20.0532 6.88827C20.0532 13.0465 20.0597 13.6387 20.128 13.7067C20.1958 13.7742 20.499 13.7797 23.3895 13.7657C26.5159 13.7506 26.5832 13.7484 26.945 13.6484C27.1479 13.5923 27.4487 13.4809 27.6135 13.4009C27.7994 13.3106 28.0226 13.1466 28.2017 12.9687C28.4017 12.77 28.5393 12.5786 28.6501 12.3452C28.738 12.1601 28.8447 11.8639 28.8874 11.6871C28.9562 11.4018 28.967 10.9087 28.9835 7.30156C28.9952 4.77362 28.9847 3.04654 28.9557 2.73235C28.9301 2.45452 28.866 2.08861 28.8133 1.91926C28.7606 1.7499 28.6134 1.45646 28.4864 1.26717C28.3529 1.06837 28.1441 0.83518 27.992 0.714865C27.8472 0.600336 27.6043 0.445901 27.4521 0.371691C27.3 0.297481 27.0511 0.204903 26.8989 0.166053C26.7468 0.127157 26.4356 0.0740719 26.2074 0.0480802C25.9675 0.0207108 24.6126 0.000596957 22.9953 0.000367348C20.5135 4.58952e-05 20.1899 0.00812811 20.1256 0.0721431ZM31.7765 0.0295736C31.7463 0.0418347 31.7007 0.117698 31.6753 0.198153C31.6499 0.278608 31.0229 3.33447 30.2819 6.98897C29.1588 12.5287 28.9446 13.6455 28.9943 13.705C29.046 13.7671 29.2531 13.7765 30.5606 13.7765C31.7577 13.7765 32.0851 13.7637 32.1531 13.7141C32.2235 13.6629 32.2782 13.4022 32.4593 12.2561C32.5806 11.4885 32.6808 10.8465 32.6821 10.8293C32.6833 10.8122 32.717 10.7657 32.7568 10.726C32.8187 10.6644 32.9923 10.6539 33.9466 10.6539C34.8192 10.6539 35.0829 10.6676 35.1502 10.7167C35.2219 10.7689 35.2729 11.0214 35.4528 12.217C35.6299 13.3933 35.6844 13.6655 35.753 13.7155C35.8186 13.7633 36.1629 13.7765 37.3436 13.7765C38.6556 13.7765 38.8582 13.7672 38.9104 13.7046C38.9606 13.6443 38.7502 12.547 37.6184 6.96555C36.8747 3.29865 36.2474 0.247243 36.2243 0.184606C36.2011 0.122014 36.1576 0.055152 36.1274 0.0360945C36.0973 0.016991 35.1184 0.00270938 33.9521 0.00431664C32.7858 0.0059239 31.8068 0.0172666 31.7765 0.0295736ZM25.0089 2.52014C25.1103 2.56648 25.2492 2.66075 25.3176 2.72964C25.386 2.79852 25.4747 2.95323 25.5149 3.07345C25.5793 3.26683 25.5863 3.72031 25.5749 7.00739L25.5621 10.7227L25.4493 10.919C25.3659 11.064 25.2719 11.1466 25.0891 11.2357C24.867 11.344 24.7748 11.3585 24.1855 11.3785C23.6101 11.3979 23.5196 11.391 23.4508 11.3225C23.378 11.2499 23.3723 10.9306 23.3723 6.91123C23.3723 3.03332 23.3799 2.57061 23.4448 2.506C23.504 2.44708 23.6371 2.43404 24.1708 2.43487C24.7056 2.43569 24.858 2.45121 25.0089 2.52014ZM34.0626 2.9964C34.0841 3.0532 34.2732 4.24097 34.4828 5.63589C34.7944 7.70866 34.8534 8.18478 34.8058 8.24195C34.758 8.29931 34.6127 8.31184 33.9959 8.31184C33.3637 8.31184 33.2323 8.3 33.1693 8.23727C33.1212 8.18932 33.1034 8.11971 33.1196 8.0421C33.1334 7.97579 33.3111 6.82944 33.5146 5.49473C33.718 4.16001 33.9056 3.02863 33.9314 2.98051C33.9573 2.93243 33.9886 2.89307 34.001 2.89307C34.0134 2.89307 34.0411 2.93959 34.0626 2.9964ZM14.7458 3.1112C14.7698 3.20594 14.9513 4.37456 15.1491 5.70822C15.4182 7.52231 15.4964 8.15268 15.4595 8.21095C15.4163 8.27919 15.314 8.28888 14.6365 8.28888C13.9584 8.28888 13.8568 8.27924 13.8134 8.21077C13.7763 8.15213 13.8598 7.50564 14.1483 5.61619C14.3597 4.23215 14.5516 3.06358 14.5747 3.01936C14.5978 2.97513 14.6359 2.93899 14.6594 2.93899C14.6829 2.93899 14.7218 3.01651 14.7458 3.1112ZM8.87411 14.79C8.46844 14.8093 7.82535 14.859 7.44504 14.9005C7.06472 14.9419 6.45275 15.0269 6.08511 15.0892C5.71746 15.1515 5.04326 15.2942 4.58688 15.4062C4.1305 15.5181 3.41909 15.7242 3.00595 15.864C2.59281 16.0039 2.05345 16.2033 1.80737 16.3071C1.56129 16.411 1.09592 16.6293 0.773269 16.7923C0.45062 16.9552 0.144613 17.1418 0.093305 17.2068C0.00585462 17.3175 0 17.3903 0 18.3711C0 18.9466 0.0125851 19.4501 0.0279823 19.49C0.0433794 19.53 0.0831631 19.5627 0.116355 19.5627C0.149592 19.5627 0.411851 19.4397 0.699188 19.2895C0.986525 19.1392 1.4602 18.9145 1.75177 18.7902C2.04335 18.6659 2.55611 18.4693 2.89126 18.3533C3.2264 18.2374 3.80725 18.0597 4.18204 17.9584C4.55682 17.8571 5.17465 17.7124 5.55496 17.6369C5.93528 17.5613 6.55762 17.4589 6.93794 17.4092C7.31826 17.3596 7.95443 17.2942 8.35167 17.2639C8.81418 17.2286 9.59331 17.2175 10.5183 17.2331C11.3128 17.2464 12.3051 17.2909 12.7234 17.3318C13.1418 17.3729 13.8886 17.4593 14.383 17.5241C14.8774 17.5888 15.7798 17.7234 16.3883 17.8232C16.9968 17.923 18.5787 18.201 19.9036 18.4409C21.2285 18.6807 22.8258 18.9578 23.4532 19.0567C24.0807 19.1555 25.0192 19.2893 25.539 19.354C26.0588 19.4187 26.8263 19.5038 27.2447 19.543C27.663 19.5822 28.721 19.626 29.5957 19.6402C30.6298 19.6571 31.4361 19.6473 31.9007 19.6122C32.2937 19.5824 32.8538 19.5274 33.1454 19.4898C33.437 19.4523 33.9325 19.37 34.2466 19.3069C34.5607 19.2438 35.0482 19.1285 35.3299 19.0507C35.6117 18.9728 36.077 18.8188 36.3639 18.7084C36.651 18.5979 37.0678 18.4139 37.2905 18.2993C37.513 18.1848 37.8383 17.9958 38.0133 17.8792C38.1884 17.7627 38.4518 17.564 38.5988 17.4377C38.7457 17.3113 38.8961 17.1498 38.933 17.0788C38.986 16.9766 39 16.7243 39 15.8668C39 14.9688 38.9887 14.7796 38.9339 14.7587C38.8951 14.7438 38.7395 14.8418 38.5576 14.9955C38.3871 15.1396 38.0901 15.3604 37.8977 15.486C37.7053 15.6116 37.3154 15.8269 37.0314 15.9645C36.7473 16.102 36.208 16.315 35.8328 16.4378C35.4576 16.5606 34.9018 16.7165 34.5975 16.7843C34.2933 16.8521 33.7124 16.9556 33.3067 17.0143C32.9011 17.073 32.1961 17.1465 31.7401 17.1775C31.2021 17.2141 30.4335 17.2244 29.5504 17.2068C28.802 17.1919 27.8267 17.1473 27.383 17.1078C26.9393 17.0683 26.1613 16.9843 25.6543 16.9212C25.1472 16.8581 24.2551 16.7329 23.672 16.643C23.0888 16.5531 21.4811 16.2754 20.0993 16.026C18.7175 15.7765 17.1512 15.5 16.6188 15.4114C16.0863 15.3229 15.2766 15.1983 14.8193 15.1346C14.362 15.0708 13.584 14.9775 13.0905 14.9271C12.597 14.8768 11.7058 14.8143 11.1099 14.7883C10.5141 14.7623 9.93324 14.7442 9.81915 14.748C9.70505 14.7518 9.27979 14.7707 8.87411 14.79ZM38.5762 18.3388C38.4163 18.4739 38.1423 18.6801 37.9672 18.797C37.7922 18.9139 37.4707 19.1013 37.2527 19.2133C37.0347 19.3254 36.698 19.4797 36.5045 19.5562C36.3109 19.6327 35.9582 19.7575 35.7208 19.8335C35.4833 19.9095 35.0816 20.0227 34.828 20.0851C34.5745 20.1474 34.1907 20.2302 33.9752 20.2689C33.7597 20.3076 33.3551 20.3699 33.0762 20.4074C32.7973 20.4449 32.2285 20.5003 31.8122 20.5305C31.3244 20.566 30.5376 20.5763 29.5994 20.5596C28.7987 20.5454 27.7806 20.5005 27.3369 20.46C26.8932 20.4194 26.2708 20.3555 25.9539 20.3179C25.637 20.2803 25.0769 20.2075 24.7092 20.1562C24.3416 20.1049 23.5429 19.9804 22.9344 19.8795C22.3259 19.7787 20.8012 19.5101 19.5461 19.2826C18.291 19.055 16.7559 18.788 16.1348 18.6892C15.5136 18.5904 14.5904 18.4587 14.0833 18.3965C13.5762 18.3344 12.8709 18.2562 12.516 18.2228C12.0992 18.1836 11.2092 18.1627 10.0035 18.1638C8.375 18.1653 8.03349 18.1783 7.32979 18.265C6.88608 18.3197 6.23262 18.4178 5.87766 18.483C5.5227 18.5481 4.94 18.6729 4.58278 18.7601C4.2256 18.8474 3.66549 19.0037 3.3381 19.1074C3.01074 19.2112 2.45248 19.4097 2.09752 19.5487C1.74255 19.6877 1.16599 19.947 0.816234 20.1251C0.466525 20.3031 0.139773 20.5002 0.0901702 20.563C0.00640777 20.6691 0 20.7549 0 21.7745C0 22.7081 0.0103262 22.8759 0.069195 22.8984C0.107319 22.913 0.495752 22.7488 0.933557 22.5331C1.3709 22.3177 2.02952 22.0276 2.39716 21.8885C2.7648 21.7493 3.38715 21.5431 3.78014 21.4301C4.17314 21.3171 4.73887 21.1704 5.03727 21.104C5.33572 21.0375 5.87923 20.9327 6.24507 20.8709C6.61096 20.8092 7.22768 20.7225 7.6156 20.6782C8.16764 20.6153 8.70156 20.5979 10.0727 20.5981C11.4013 20.5983 12.0194 20.6178 12.6312 20.6787C13.0749 20.7229 13.7699 20.8014 14.1755 20.8531C14.5812 20.9048 15.3622 21.0171 15.9111 21.1026C16.4601 21.188 18.0574 21.4649 19.4608 21.7177C20.8642 21.9706 22.5103 22.259 23.1188 22.3587C23.7273 22.4583 24.6297 22.593 25.1241 22.658C25.6185 22.723 26.3238 22.8066 26.6915 22.8438C27.0591 22.881 27.7278 22.9354 28.1775 22.9647C28.6871 22.9978 29.5988 23.0085 30.5977 22.993C31.6422 22.9769 32.401 22.9429 32.7766 22.8955C33.0935 22.8555 33.5395 22.7911 33.7677 22.7525C33.9959 22.7138 34.4212 22.6294 34.7128 22.5649C35.0043 22.5004 35.523 22.3554 35.8652 22.2427C36.2075 22.1299 36.7407 21.9164 37.05 21.7683C37.3592 21.6201 37.7534 21.4078 37.9258 21.2965C38.0983 21.1852 38.3706 20.9852 38.5309 20.852C38.6913 20.7188 38.8623 20.5447 38.9111 20.4651C38.9916 20.3336 38.9997 20.2252 38.9998 19.2794C38.9999 18.7069 38.9874 18.2058 38.972 18.1658C38.9566 18.1259 38.9267 18.0932 38.9055 18.0932C38.8843 18.0932 38.7361 18.2037 38.5762 18.3388Z" fill="#98A2B3"/>
</svg>
