<svg width="171" height="21" viewBox="0 0 171 21" fill="none" xmlns="http://www.w3.org/2000/svg">
<path d="M97.8051 0.770169C98.138 0.73418 98.3839 0.683196 98.6269 0.683196C101.326 0.677197 104.025 0.671199 106.724 0.683196C108.236 0.689194 109.427 1.337 110.164 2.66259C110.605 3.45135 110.815 4.34808 110.695 5.2508C110.371 7.68906 109.43 9.75243 107.072 10.8981C106.991 10.9371 106.943 11.042 106.766 11.249C107.132 12.4846 107.615 13.7622 108.353 15.0008H110.692C110.083 13.7142 110.008 12.4726 110.425 11.192C111.193 8.82871 113.733 6.81332 116.198 6.67537C116.897 6.63638 117.605 6.59139 118.295 6.67537C121.414 7.05325 122.266 8.73274 121.711 11.4079C121.642 11.7438 121.483 12.0587 121.321 12.5086C119.189 12.7665 116.996 12.4456 114.801 12.6885C114.6 13.4593 113.937 14.1401 114.729 15.0038H121.54C122.704 12.5806 123.516 9.91738 124.641 7.39515C125.886 6.75934 127.196 7.04126 128.411 6.99027C128.603 7.2212 128.756 7.40414 128.948 7.63207C130.018 6.83132 131.173 6.9063 132.322 6.94828C133.56 6.99627 134.424 7.65607 134.838 8.75673C135.399 10.2353 135.459 11.7618 134.736 13.2374C134.475 13.7742 134.193 14.302 133.863 14.9468C134.763 15.2228 135.609 15.0098 136.478 15.0548C136.385 14.293 136.283 13.6692 136.235 13.0394C136.046 10.5352 137.129 8.66976 139.261 7.46413C141.547 6.16852 143.952 5.83562 146.393 7.09824C147.803 7.82702 148.52 8.98766 148.535 10.5922C148.553 12.4516 148.43 12.8745 147.071 14.9858H148.43C149.437 12.4366 150.436 9.89938 151.426 7.39515C151.951 7.24519 152.37 7.04425 152.805 7.01426C153.6 6.95728 154.401 6.99927 155.232 6.99927C155.361 7.26319 155.486 7.51811 155.627 7.80902C155.768 7.73104 155.9 7.68006 156.008 7.59309C156.431 7.25119 156.803 6.83132 157.268 6.5614C158.054 6.10254 158.848 6.37246 159.298 7.16122C159.97 8.33986 159.511 10.5922 158.432 11.4109C157.553 12.0767 156.449 11.6449 156.101 10.4872C155.996 10.1363 155.954 9.76742 155.867 9.30856C155.052 10.2413 153.759 13.2853 153.405 15.0458C155.708 15.1238 157.988 15.0668 160.222 15.0848C161.047 12.8805 161.839 10.7661 162.669 8.5378C162.249 8.49581 161.965 8.45682 161.677 8.44483C161.38 8.42983 161.083 8.44183 160.624 8.44183C160.777 7.95898 160.903 7.5631 161.065 7.05925L163.269 6.9093C163.698 5.9076 164.142 4.86992 164.649 3.68528C166.115 3.06747 167.753 3.51733 169.405 3.36438C168.985 4.55801 168.611 5.62269 168.182 6.84032C168.859 6.91829 169.381 6.98127 170.02 7.05625C169.882 7.47012 169.747 7.866 169.588 8.34586C168.931 8.39984 168.299 8.45083 167.495 8.51681C166.802 10.2383 166.064 12.0227 165.377 13.8282C165.264 14.1281 165.362 14.506 165.362 14.8959C166.268 15.3127 167.249 14.9079 168.272 15.2018C168.119 15.7026 167.969 16.1915 167.783 16.7973H125.73C125.214 18.0239 124.737 19.1576 124.233 20.3572H119.602C119.986 19.2595 120.358 18.2008 120.721 17.1692C120.25 16.6383 119.719 16.8273 119.255 16.8273C114.357 16.8123 109.457 16.8183 104.559 16.8183C104.01 16.8183 103.461 16.8183 102.847 16.8183C102.271 15.1538 101.704 13.5193 101.113 11.8128H99.7665C99.2327 13.4503 98.7108 15.0488 98.177 16.6863C97.2923 16.9562 96.3925 16.7853 95.5078 16.8153C94.6621 16.8453 93.8163 16.8213 92.9976 16.8213C92.6347 16.3264 92.8596 15.9305 93.0006 15.5077C94.2872 11.6389 95.5648 7.76404 96.8334 3.88922C97.1723 2.85753 97.4782 1.81985 97.8021 0.773168L97.8051 0.770169ZM102.739 2.83354C101.995 5.10685 101.275 7.29918 100.516 9.60847H102.757C103.41 9.29057 103.701 8.64876 103.932 7.98897C104.259 7.05625 104.559 6.11154 104.814 5.15783C105.36 3.10346 104.937 2.61461 102.739 2.83354ZM143.502 7.91999C142.393 8.37585 142.333 8.39984 142.021 9.1976C141.463 10.6222 140.926 12.0587 140.395 13.4953C140.275 13.8162 140.176 14.1521 140.128 14.491C140.062 14.9648 140.179 15.4117 140.668 15.6006C141.124 15.7746 141.556 15.6426 141.889 15.2827C142.054 15.1028 142.213 14.8989 142.306 14.6769C142.986 13.0334 143.685 11.3959 144.297 9.72844C144.6 8.90669 144.378 8.55579 143.505 7.92599L143.502 7.91999ZM127.691 15.5737C128.123 15.1448 128.555 14.8959 128.714 14.53C129.364 13.0274 129.937 11.4859 130.531 9.95936C130.567 9.86939 130.561 9.76143 130.564 9.66246C130.585 8.96667 130.021 8.49881 129.382 8.76573C129.044 8.90669 128.663 9.20959 128.531 9.5305C127.85 11.18 127.247 12.8565 126.599 14.566C126.95 14.8869 127.232 15.1448 127.694 15.5707L127.691 15.5737ZM117.794 10.8171C118.106 10.0433 118.52 9.35355 118.121 8.5198L117.359 8.15392C116.207 8.72074 115.899 9.70744 115.65 10.8201H117.794V10.8171Z" fill="#98A2B3"/>
<path d="M86.1147 8.23482C85.7159 8.07287 85.3979 7.94691 85.122 7.83594C84.3663 8.27581 83.6565 9.32049 82.9927 10.97C83.3796 11.4648 83.9314 11.4348 84.4742 11.4348C85.272 11.4348 86.0757 11.3959 86.8705 11.4498C87.3923 11.4828 87.9082 11.6478 88.457 11.7617C88.505 12.2896 88.568 12.6795 88.571 13.0693C88.577 15.0038 87.3414 16.3503 85.3919 16.5183C84.7471 16.5723 84.0933 16.5663 83.4455 16.5663C76.1518 16.5693 68.861 16.5693 61.5672 16.5663C60.8294 16.5663 60.0437 16.7282 59.5098 15.8465C58.892 16.5603 58.1573 16.5783 57.3955 16.5753C53.4997 16.5633 49.6039 16.5693 45.7081 16.5663C45.3572 16.5663 45.0063 16.5783 44.6614 16.5333C43.4557 16.3833 42.46 15.8735 41.9232 14.7278C41.2754 13.3453 41.1195 11.9507 41.4194 10.3912C41.8812 7.99489 42.787 5.83555 44.1035 3.81417C45.1472 2.20966 46.6918 1.4269 48.4882 0.971035C49.8168 0.635137 51.1544 0.680123 52.495 0.689121C54.4204 0.707115 56.1689 2.0567 55.818 4.51295C55.752 4.98381 55.5361 5.47266 55.2661 5.86854C54.8313 6.50435 54.2225 6.9812 53.3857 6.85524C52.573 6.73228 51.8202 5.86554 51.7272 4.93582C51.6582 4.24903 51.7152 3.55025 51.7152 2.99542C51.3313 2.50057 51.0044 2.3986 50.5576 2.54555C49.7118 2.82147 49.256 3.44228 48.9861 4.22804C48.0563 6.95721 47.1356 9.68937 46.2179 12.4215C46.1099 12.7484 45.993 13.0903 45.984 13.4292C45.951 14.6139 46.6048 15.3127 47.7744 15.3307C49.322 15.3546 50.8725 15.3427 52.42 15.3307C52.7049 15.3307 52.9898 15.2317 53.2987 15.1747C53.2568 14.4279 53.2088 13.7501 53.1848 13.0693C53.1158 11.1589 53.9256 9.71337 55.5271 8.69368C57.5994 7.37408 59.7798 7.17014 62.1161 8.03688C63.5946 7.42507 65.1901 7.60501 66.8696 7.60801C66.7616 8.93361 65.9819 9.9473 65.61 11.0989C65.2291 12.2746 64.6983 13.3992 64.2664 14.4639C64.7373 15.4746 65.487 15.3666 66.3837 15.2677C67.5864 12.9224 68.3212 10.3282 69.5388 7.84194C70.7144 7.73697 71.8871 7.629 73.0327 7.52703C73.2277 7.89592 73.3566 8.14485 73.4796 8.37877C73.6205 8.35478 73.7375 8.36978 73.8035 8.31879C74.2743 7.9589 74.6972 7.51204 75.2101 7.22713C76.0828 6.74427 76.6856 7.01119 77.1775 7.86893C77.7053 8.78965 77.4264 10.6881 76.2837 11.6838C75.5999 12.2806 74.7152 12.1036 74.2653 11.2849C74.0134 10.826 73.8935 10.2952 73.6505 9.6204C72.4389 11.3119 72.064 13.2313 71.1793 15.0637C71.5752 15.1777 71.8871 15.3426 72.199 15.3456C75.447 15.3636 78.692 15.3456 81.94 15.3666C82.8487 15.3726 83.4605 15.0187 83.8024 14.176C83.9674 13.7651 84.1653 13.3663 84.4023 12.8474C84.0514 12.7664 83.7904 12.6585 83.5265 12.6555C82.4289 12.6345 81.3282 12.6675 80.2305 12.6405C78.821 12.6075 78.2511 11.9387 78.3921 10.5471C78.542 9.08656 79.6097 7.9679 81.1692 7.60201C83.0377 7.16415 84.9331 7.24812 86.8225 7.3171C87.3473 7.33809 87.8872 7.57202 88.373 7.80295C89.0088 8.10286 89.2608 8.78365 89.0748 9.44045C88.9069 10.0403 88.394 10.4661 87.7792 10.5171C87.0984 10.5741 86.4776 10.1902 86.2887 9.52742C86.1807 9.15254 86.1837 8.74466 86.1207 8.23782L86.1147 8.23482ZM58.7961 15.3277C59.105 14.9438 59.5458 14.5749 59.7438 14.107C60.3166 12.7514 60.8204 11.3629 61.2823 9.96829C61.4143 9.56941 61.1563 9.12255 60.7065 9.08656C60.3556 9.05657 59.9567 9.21852 59.6388 9.39846C59.4559 9.50043 59.3629 9.80034 59.2669 10.0253C58.7511 11.2549 58.2202 12.4785 57.7524 13.7231C57.6234 14.065 57.6834 14.4819 57.6594 14.8658C57.9083 15.0068 58.0733 15.1147 58.2502 15.1927C58.3822 15.2497 58.5291 15.2677 58.7991 15.3337L58.7961 15.3277Z" fill="#98A2B3"/>
<path d="M23.218 15.3221C23.146 14.8062 23.128 14.5153 23.059 14.2364C22.5702 12.311 23.155 10.7155 24.5316 9.35388C26.244 7.6594 29.2401 6.87964 31.9753 8.13626C32.5181 6.88564 33.0609 5.63502 33.6188 4.34241H38.1084C37.6705 5.79697 37.0437 7.12556 36.4979 8.48115C35.8081 10.1876 35.0793 11.8791 34.4225 13.5946C34.2576 14.0265 34.2936 14.5333 34.2366 15.0401C34.7914 15.2111 35.2083 15.3371 35.7331 15.499C35.5922 15.8469 35.4572 16.1888 35.3373 16.4917C31.4174 16.7646 30.3678 16.6866 29.3211 16.0059C28.6163 16.5307 27.7436 16.5817 26.8408 16.5727C23.8448 16.5487 20.8487 16.5637 17.8526 16.5637C17.3068 16.5637 16.7609 16.5637 16.2661 16.5637C15.3753 15.7749 15.2164 14.9472 15.6333 13.9455C16.473 11.9271 17.2798 9.89072 18.0985 7.86334C18.5634 6.71469 19.0282 5.56904 19.5291 4.33042C21.0376 4.27343 22.5042 4.21345 24.1327 4.35741C23.3889 6.16886 22.6931 7.86034 22.0003 9.55482C21.4905 10.7964 20.9836 12.0411 20.4858 13.2887C20.3568 13.6096 20.2309 13.9425 20.1679 14.2814C20.0599 14.8722 20.3448 15.2681 20.9506 15.3101C21.6374 15.3581 22.3302 15.3221 23.218 15.3221ZM28.1335 15.2951C28.7723 15.1991 29.1681 14.9412 29.3781 14.4403C29.9359 13.1177 30.4727 11.7861 31.0516 10.4755C31.3185 9.87273 31.1805 9.43786 30.6947 9.07197C29.6 9.17394 29.501 9.17994 29.0962 10.0887C28.4903 11.4442 27.9595 12.8328 27.4047 14.2094C27.3717 14.2934 27.4017 14.4043 27.4017 14.6113C27.6296 14.8242 27.9055 15.0821 28.1335 15.2951Z" fill="#98A2B3"/>
<path d="M0.970869 12.1638C0.862902 10.1395 1.71164 8.21705 2.53639 6.30364C2.88728 5.48489 3.35814 4.71412 3.826 3.95236C5.1426 1.82001 7.20597 0.929278 9.57524 0.713344C10.7479 0.608376 11.9415 0.578385 13.1292 0.932277C15.0126 1.49311 16.1462 2.8127 16.2512 4.7981C16.3562 6.7715 15.8613 8.65192 15.2015 10.4694C14.7996 11.579 14.1938 12.6257 13.597 13.6514C12.4904 15.5528 10.7089 16.4435 8.61254 16.8394C7.13699 17.1183 5.69143 17.1873 4.18889 16.8874C2.04754 16.4585 0.829912 14.923 0.970869 12.9016C0.985864 12.7037 0.970869 12.5027 0.970869 12.1638ZM10.403 2.55478C9.54525 2.8187 9.00542 3.38253 8.71751 4.26426C7.81178 7.04441 6.86107 9.80957 5.95235 12.5867C5.81739 13.0006 5.7874 13.4565 5.75141 13.8943C5.71242 14.3652 5.81739 14.8 6.30324 15.016C6.7561 15.2169 7.49388 15.085 7.80578 14.6711C8.09969 14.2842 8.34562 13.8343 8.50157 13.3755C9.43129 10.6583 10.331 7.92914 11.2337 5.20297C11.3417 4.87607 11.4617 4.54318 11.5007 4.20428C11.6086 3.23857 11.4737 3.05563 10.406 2.55478H10.403Z" fill="#98A2B3"/>
</svg>
