<svg width="67" height="19" viewBox="0 0 67 19" fill="none" xmlns="http://www.w3.org/2000/svg">
<path fill-rule="evenodd" clip-rule="evenodd" d="M1.04318 0.15244C0.946283 0.26528 0.958096 0.369836 1.09743 0.632286C1.19548 0.81685 3.53121 4.78644 6.28798 9.45358C9.04476 14.1207 11.4017 18.0459 11.5258 18.1762C11.6498 18.3065 11.9629 18.5338 12.2216 18.6813C12.6313 18.9148 12.8068 18.9495 13.5805 18.9495C14.3641 18.9495 14.5275 18.9163 14.9638 18.6685C15.2359 18.5139 15.581 18.239 15.7308 18.0576C15.8805 17.8763 17.8988 14.5251 20.2158 10.6106C23.4201 5.19709 24.4751 3.49338 24.623 3.49338C24.8106 3.49338 24.8184 3.75088 24.8424 10.7668C24.8563 14.8082 24.8266 18.1021 24.7757 18.1795C24.7253 18.2561 24.6301 18.2865 24.5641 18.2471C24.4981 18.2077 23.9565 17.2337 23.3605 16.0827C22.7645 14.9317 22.2047 13.9321 22.1166 13.8615C22.0037 13.7709 21.9003 13.7627 21.7667 13.8337C21.6624 13.8892 20.476 15.0041 19.1302 16.3114C17.0301 18.3514 16.7024 18.7104 16.8173 18.8441C16.9353 18.9816 17.7272 19 23.5162 19C29.3451 19 30.0998 18.9822 30.2457 18.8413C30.3915 18.7003 30.4099 17.9674 30.4099 12.2974C30.4099 6.68189 30.4295 5.88524 30.5726 5.68785C30.7279 5.47358 30.8041 5.46328 32.2265 5.46328C33.3442 5.46328 33.8457 5.5055 34.2291 5.63168C34.5495 5.73724 34.9209 5.97444 35.2233 6.26659C35.5256 6.55884 35.771 6.91777 35.8803 7.2274C36.0345 7.66492 36.0545 8.35135 36.0545 13.2021C36.0545 18.0496 36.0734 18.7009 36.2187 18.8413C36.3589 18.9767 36.7491 19 38.8768 19C41.0045 19 41.3948 18.9767 41.5349 18.8413C41.6801 18.7009 41.6992 18.0588 41.6992 13.3035C41.6992 8.77604 41.7244 7.84231 41.8587 7.4055C41.9464 7.12001 42.1702 6.69371 42.3561 6.45823C42.5421 6.22255 42.9272 5.91383 43.2123 5.77189C43.692 5.53298 43.8519 5.51137 45.3659 5.48177C46.7707 5.45429 47.0254 5.47308 47.1726 5.61531C47.3276 5.76513 47.3438 6.39014 47.3438 12.2316C47.3438 17.9614 47.3622 18.7003 47.508 18.8413C47.6482 18.9767 48.0384 19 50.1661 19C52.2938 19 52.684 18.9767 52.8242 18.8413C52.97 18.7003 52.9884 17.9614 52.9884 12.2316C52.9884 6.50187 53.0068 5.76301 53.1526 5.62198C53.2939 5.4855 53.7153 5.46328 56.1654 5.46328C58.5501 5.46328 59.0971 5.49065 59.5254 5.63168C59.8458 5.73724 60.2172 5.97444 60.5196 6.26659C60.8219 6.55884 61.0673 6.91777 61.1766 7.2274C61.2724 7.49924 61.3508 7.91009 61.3508 8.14032C61.3508 8.37054 61.2778 8.76624 61.1884 9.0197C61.099 9.27316 60.8637 9.6637 60.6654 9.88746C60.4672 10.1113 60.0607 10.4121 59.7621 10.5559C59.223 10.8155 59.2012 10.8174 56.6915 10.8174C54.5061 10.8174 54.1451 10.8392 54.0256 10.9784C53.9084 11.1149 53.933 11.2186 54.1877 11.6603C54.3529 11.9468 55.2358 13.454 56.1496 15.0097C57.0634 16.5654 57.9589 17.9868 58.1397 18.1682C58.3204 18.3496 58.7028 18.6111 58.9893 18.7491C59.5009 18.9955 59.5562 19 62.0298 19C63.7595 19 64.5863 18.9643 64.6673 18.8861C64.7448 18.8112 64.753 18.6909 64.6912 18.5337C64.6395 18.4026 64.2472 17.7063 63.8193 16.9866C63.3914 16.2669 63.0099 15.5826 62.9716 15.466C62.9187 15.3049 62.9825 15.1881 63.2373 14.9803C63.4217 14.8298 63.9236 14.3884 64.3527 13.9995C64.7817 13.6106 65.3572 12.9685 65.6313 12.5727C65.9056 12.1768 66.2724 11.4722 66.4466 11.0069C66.6207 10.5415 66.8223 9.80553 66.8947 9.37155C66.9773 8.87595 67.0016 8.2182 66.9601 7.6037C66.9238 7.06536 66.8199 6.35226 66.7294 6.01889C66.6388 5.68552 66.3783 5.04536 66.1505 4.59622C65.9228 4.14719 65.4809 3.48045 65.1687 3.11456C64.8564 2.74876 64.3055 2.21841 63.9443 1.93595C63.5832 1.6536 62.9682 1.26023 62.5778 1.06192C62.1873 0.863622 61.5433 0.594705 61.1466 0.464389C60.7499 0.333972 60.0809 0.174967 59.6598 0.111021C59.1166 0.0285886 56.5883 0.00484984 50.9501 0.0292968C43.7455 0.060512 42.9473 0.0802094 42.3786 0.241135C42.0336 0.338821 41.4074 0.575512 40.9869 0.767148C40.5664 0.958783 39.9528 1.29831 39.6234 1.52157C39.294 1.74492 38.9559 1.92757 38.8719 1.92757C38.788 1.92757 38.4843 1.76452 38.1971 1.56531C37.9098 1.3661 37.369 1.05314 36.9953 0.869885C36.6216 0.686533 35.9866 0.429538 35.5841 0.298717L34.8524 0.0609149L27.9109 0.0304066L20.9694 0L20.4203 0.259623C20.1182 0.402466 19.7139 0.689261 19.5219 0.896857C19.33 1.10456 18.8201 1.88211 18.3889 2.62471C17.9577 3.36731 16.7569 5.41216 15.7204 7.1688C14.2692 9.62835 13.7847 10.3699 13.6137 10.3938C13.4217 10.4205 13.0909 9.91353 11.1746 6.65603C9.95511 4.58319 8.71873 2.48439 8.42688 1.99202C8.13514 1.49965 7.75339 0.95858 7.57862 0.789674C7.40384 0.620768 7.02461 0.3763 6.736 0.246388C6.23175 0.0193954 6.11227 0.0101024 3.68905 0.00919319C1.63022 0.00838503 1.14426 0.0346502 1.04318 0.15244Z" fill="#98A2B3"/>
</svg>
