<svg width="218" height="65" viewBox="0 0 218 65" fill="none" xmlns="http://www.w3.org/2000/svg">
<g clip-path="url(#clip0_4925_7580)">
<path d="M118.292 58.8902V54.5176H120.16C120.368 54.5176 120.566 54.564 120.74 54.6452C120.913 54.7263 121.064 54.8423 121.192 54.9815C121.319 55.1207 121.412 55.2831 121.482 55.457C121.551 55.631 121.586 55.8166 121.586 55.9906C121.586 56.1877 121.551 56.3733 121.482 56.5473C121.412 56.7213 121.319 56.8837 121.203 57.0228C121.087 57.162 120.937 57.278 120.763 57.3592C120.589 57.4404 120.403 57.4868 120.194 57.4868H119.313V58.9018H118.304L118.292 58.8902ZM119.301 56.6053H120.125C120.241 56.6053 120.345 56.5589 120.426 56.4545C120.508 56.3501 120.554 56.1993 120.554 56.0022C120.554 55.8978 120.542 55.8166 120.519 55.7354C120.496 55.6542 120.461 55.5962 120.415 55.5498C120.368 55.5034 120.322 55.4686 120.264 55.4454C120.206 55.4223 120.148 55.4107 120.09 55.4107H119.301V56.6053Z" fill="white"/>
<path d="M123.28 58.8902V54.5176H125.251C125.46 54.5176 125.646 54.564 125.82 54.6452C125.994 54.7263 126.144 54.8423 126.272 54.9815C126.4 55.1207 126.504 55.2831 126.573 55.457C126.643 55.631 126.678 55.8166 126.678 55.9906C126.678 56.1298 126.666 56.2573 126.631 56.3849C126.597 56.5125 126.55 56.6285 126.492 56.7329C126.434 56.8489 126.353 56.9416 126.272 57.0344C126.179 57.1272 126.086 57.1968 125.97 57.2548L126.933 58.8786H125.796L124.961 57.4636H124.3V58.8786H123.291L123.28 58.8902ZM124.289 56.6053H125.216C125.332 56.6053 125.437 56.5473 125.518 56.4313C125.599 56.3153 125.646 56.1761 125.646 56.0022C125.646 55.8282 125.599 55.6774 125.495 55.573C125.39 55.4686 125.286 55.4107 125.17 55.4107H124.277V56.6053H124.289Z" fill="white"/>
<path d="M130.471 58.9247C130.146 58.9247 129.856 58.8667 129.589 58.7392C129.322 58.6116 129.09 58.4492 128.905 58.2404C128.719 58.0317 128.568 57.7997 128.464 57.5329C128.36 57.2662 128.313 56.9878 128.313 56.7094C128.313 56.4311 128.371 56.1411 128.476 55.8743C128.58 55.6076 128.731 55.3756 128.928 55.1668C129.125 54.9581 129.357 54.7957 129.624 54.6797C129.891 54.5637 130.181 54.4941 130.494 54.4941C130.807 54.4941 131.108 54.5521 131.375 54.6797C131.642 54.8073 131.874 54.9697 132.06 55.19C132.245 55.3988 132.396 55.6424 132.5 55.9091C132.605 56.1759 132.651 56.4427 132.651 56.721C132.651 56.9994 132.593 57.2894 132.489 57.5561C132.384 57.8229 132.233 58.0549 132.036 58.2636C131.839 58.4724 131.619 58.6348 131.352 58.7508C131.085 58.8783 130.795 58.9363 130.482 58.9363M129.345 56.721C129.345 56.895 129.369 57.0574 129.415 57.2082C129.461 57.3705 129.531 57.5097 129.635 57.6257C129.728 57.7533 129.856 57.8461 129.995 57.9273C130.134 57.9969 130.308 58.0432 130.494 58.0432C130.679 58.0432 130.853 58.0085 130.992 57.9273C131.132 57.8461 131.259 57.7533 131.352 57.6257C131.445 57.4981 131.514 57.3589 131.561 57.1966C131.607 57.0342 131.63 56.8834 131.63 56.7094C131.63 56.5355 131.607 56.3731 131.561 56.2223C131.514 56.0599 131.433 55.9207 131.34 55.8048C131.236 55.6888 131.12 55.5844 130.981 55.5148C130.842 55.4452 130.679 55.4104 130.494 55.4104C130.308 55.4104 130.134 55.4452 129.995 55.5264C129.856 55.6076 129.74 55.7004 129.635 55.828C129.543 55.9555 129.461 56.0947 129.415 56.2455C129.369 56.4079 129.345 56.5703 129.345 56.7326" fill="white"/>
<path d="M137.511 55.4107H136.177V58.8902H135.168V55.4107H133.834V54.5176H137.511V55.4107Z" fill="white"/>
<path d="M142.22 58.0087V58.8902H139.146V54.5176H142.162V55.4107H140.155V56.2573H141.883V57.0692H140.155V58.0087H142.22Z" fill="white"/>
<path d="M143.635 56.6639C143.635 56.3971 143.681 56.142 143.786 55.8752C143.878 55.62 144.029 55.3881 144.215 55.1793C144.4 54.9705 144.632 54.8082 144.899 54.6806C145.166 54.553 145.479 54.4834 145.827 54.4834C146.233 54.4834 146.592 54.5762 146.894 54.7502C147.195 54.9241 147.416 55.1561 147.567 55.4461L146.79 55.9912C146.743 55.8752 146.674 55.7824 146.604 55.7012C146.534 55.62 146.442 55.562 146.349 55.5157C146.256 55.4693 146.163 55.4345 146.07 55.4229C145.978 55.3997 145.885 55.3997 145.792 55.3997C145.595 55.3997 145.433 55.4345 145.293 55.5157C145.154 55.5968 145.027 55.6896 144.934 55.8172C144.841 55.9448 144.771 56.084 144.725 56.2348C144.679 56.3971 144.655 56.5479 144.655 56.7103C144.655 56.8843 144.679 57.0466 144.737 57.209C144.795 57.3714 144.864 57.5106 144.969 57.6382C145.073 57.7657 145.189 57.8585 145.328 57.9281C145.467 57.9977 145.63 58.0325 145.804 58.0325C145.896 58.0325 145.989 58.0325 146.082 57.9977C146.175 57.9745 146.268 57.9397 146.36 57.8933C146.453 57.8469 146.534 57.7889 146.604 57.7078C146.674 57.6266 146.743 57.5338 146.778 57.4294L147.601 57.9165C147.532 58.0789 147.439 58.2181 147.311 58.3457C147.184 58.4733 147.033 58.5776 146.859 58.6704C146.685 58.7632 146.511 58.8212 146.326 58.8676C146.14 58.914 145.954 58.9372 145.769 58.9372C145.456 58.9372 145.166 58.8792 144.899 58.74C144.632 58.6124 144.412 58.4385 144.215 58.2297C144.029 58.0209 143.878 57.7773 143.774 57.499C143.67 57.2322 143.623 56.9539 143.623 56.6755" fill="white"/>
<path d="M152.565 55.4107H151.232V58.8902H150.223V55.4107H148.889V54.5176H152.565V55.4107Z" fill="white"/>
<path d="M157.089 54.5176L158.028 56.5241L158.979 54.5176H160.081L158.527 57.4056V58.8902H157.518V57.3824L155.987 54.5176H157.089Z" fill="white"/>
<path d="M163.259 58.9247C162.934 58.9247 162.645 58.8667 162.378 58.7392C162.111 58.6116 161.879 58.4492 161.693 58.2404C161.508 58.0317 161.357 57.7997 161.253 57.5329C161.148 57.2662 161.102 56.9878 161.102 56.7094C161.102 56.4311 161.16 56.1411 161.264 55.8743C161.369 55.6076 161.519 55.3756 161.717 55.1668C161.914 54.9581 162.146 54.7957 162.413 54.6797C162.679 54.5637 162.969 54.4941 163.282 54.4941C163.596 54.4941 163.897 54.5521 164.164 54.6797C164.431 54.8073 164.663 54.9697 164.848 55.19C165.034 55.3988 165.185 55.6424 165.289 55.9091C165.393 56.1759 165.44 56.4427 165.44 56.721C165.44 56.9994 165.382 57.2894 165.277 57.5561C165.173 57.8229 165.022 58.0549 164.825 58.2636C164.628 58.4724 164.407 58.6348 164.141 58.7508C163.874 58.8783 163.584 58.9363 163.271 58.9363M162.134 56.721C162.134 56.895 162.157 57.0574 162.204 57.2082C162.25 57.3705 162.32 57.5097 162.424 57.6257C162.517 57.7533 162.645 57.8461 162.784 57.9273C162.923 57.9969 163.097 58.0432 163.282 58.0432C163.468 58.0432 163.642 58.0085 163.781 57.9273C163.92 57.8461 164.048 57.7533 164.141 57.6257C164.234 57.4981 164.303 57.3589 164.349 57.1966C164.396 57.0342 164.419 56.8834 164.419 56.7094C164.419 56.5355 164.396 56.3731 164.349 56.2223C164.303 56.0599 164.222 55.9207 164.129 55.8048C164.025 55.6888 163.909 55.5844 163.77 55.5148C163.63 55.4452 163.468 55.4104 163.282 55.4104C163.085 55.4104 162.923 55.4452 162.784 55.5264C162.645 55.6076 162.529 55.7004 162.424 55.828C162.331 55.9555 162.25 56.0947 162.204 56.2455C162.157 56.4079 162.134 56.5703 162.134 56.7326" fill="white"/>
<path d="M169.047 58.0319C169.221 58.0319 169.36 57.9971 169.488 57.9275C169.604 57.8579 169.696 57.7651 169.777 57.6375C169.847 57.5216 169.905 57.3824 169.928 57.2316C169.963 57.0808 169.975 56.9184 169.975 56.7561V54.5176H170.984V56.7561C170.984 57.0576 170.949 57.3476 170.868 57.6028C170.787 57.8695 170.671 58.0899 170.52 58.2871C170.357 58.4842 170.16 58.635 169.917 58.751C169.673 58.867 169.383 58.925 169.047 58.925C168.71 58.925 168.397 58.867 168.154 58.751C167.91 58.635 167.713 58.4726 167.551 58.2755C167.4 58.0783 167.284 57.8463 167.214 57.5796C167.145 57.3128 167.11 57.046 167.11 56.7561V54.5176H168.119V56.7561C168.119 56.93 168.131 57.0808 168.165 57.2316C168.2 57.3824 168.247 57.5216 168.328 57.6375C168.397 57.7535 168.502 57.8463 168.618 57.9159C168.734 57.9855 168.884 58.0203 169.047 58.0203" fill="white"/>
<path d="M172.921 58.8902V54.5176H174.892C175.101 54.5176 175.287 54.564 175.461 54.6452C175.635 54.7263 175.785 54.8423 175.913 54.9815C176.041 55.1207 176.145 55.2831 176.215 55.457C176.284 55.631 176.319 55.8166 176.319 55.9906C176.319 56.1298 176.307 56.2573 176.273 56.3849C176.238 56.5125 176.191 56.6285 176.133 56.7329C176.075 56.8489 175.994 56.9416 175.913 57.0344C175.82 57.1272 175.727 57.1968 175.611 57.2548L176.574 58.8786H175.438L174.602 57.4636H173.941V58.8786H172.932L172.921 58.8902ZM173.93 56.6053H174.858C174.974 56.6053 175.078 56.5473 175.159 56.4313C175.24 56.3153 175.287 56.1761 175.287 56.0022C175.287 55.8282 175.24 55.6774 175.136 55.573C175.032 55.4686 174.927 55.4107 174.811 55.4107H173.918V56.6053H173.93Z" fill="white"/>
<path d="M180.773 58.8902V54.5176H182.64C182.849 54.5176 183.046 54.564 183.22 54.6452C183.394 54.7263 183.545 54.8423 183.672 54.9815C183.8 55.1207 183.893 55.2831 183.974 55.457C184.043 55.631 184.078 55.8166 184.078 55.9906C184.078 56.1877 184.043 56.3733 183.974 56.5473C183.904 56.7213 183.811 56.8837 183.696 57.0228C183.58 57.162 183.429 57.278 183.255 57.3592C183.081 57.4404 182.895 57.4868 182.686 57.4868H181.805V58.9018H180.796L180.773 58.8902ZM181.782 56.6053H182.605C182.721 56.6053 182.826 56.5589 182.907 56.4545C182.988 56.3501 183.034 56.1993 183.034 56.0022C183.034 55.8978 183.034 55.8166 183 55.7354C182.976 55.6658 182.942 55.5962 182.895 55.5498C182.849 55.5034 182.802 55.4686 182.744 55.4454C182.686 55.4223 182.628 55.4107 182.57 55.4107H181.782V56.6053Z" fill="white"/>
<path d="M186.665 54.5176H187.581L189.17 58.8902H188.138L187.801 57.9159H186.444L186.108 58.8902H185.076L186.665 54.5176ZM187.628 57.2084L187.117 55.6658L186.595 57.2084H187.628Z" fill="white"/>
<path d="M193.311 55.805C193.311 55.805 193.253 55.7586 193.183 55.7122C193.114 55.6658 193.021 55.6194 192.905 55.573C192.789 55.5266 192.673 55.4802 192.545 55.4454C192.406 55.4107 192.278 55.3875 192.151 55.3875C191.791 55.3875 191.606 55.5034 191.606 55.747C191.606 55.8166 191.629 55.8862 191.664 55.9326C191.699 55.979 191.757 56.0254 191.838 56.0602C191.907 56.095 192.012 56.1414 192.128 56.1645C192.244 56.1993 192.371 56.2341 192.522 56.2805C192.731 56.3385 192.916 56.3965 193.09 56.4661C193.264 56.5357 193.404 56.6169 193.52 56.7213C193.636 56.8257 193.728 56.9416 193.786 57.0924C193.844 57.2316 193.879 57.4056 193.879 57.6144C193.879 57.8579 193.833 58.0667 193.74 58.2407C193.647 58.4146 193.52 58.5422 193.369 58.6582C193.218 58.7626 193.044 58.8438 192.847 58.8902C192.65 58.9366 192.452 58.9598 192.244 58.9598C192.081 58.9598 191.919 58.9482 191.745 58.925C191.571 58.9018 191.409 58.867 191.258 58.8206C191.095 58.7742 190.945 58.7162 190.794 58.6466C190.643 58.577 190.504 58.5074 190.376 58.4146L190.817 57.5332C190.817 57.5332 190.887 57.5912 190.979 57.6491C191.072 57.7071 191.188 57.7651 191.316 57.8231C191.455 57.8811 191.594 57.9275 191.768 57.9739C191.931 58.0203 192.093 58.0435 192.267 58.0435C192.626 58.0435 192.8 57.9391 192.8 57.7187C192.8 57.6375 192.777 57.568 192.719 57.5216C192.661 57.4636 192.592 57.4172 192.499 57.3824C192.406 57.336 192.29 57.3012 192.162 57.2664C192.035 57.2316 191.896 57.1852 191.745 57.1388C191.548 57.0808 191.374 57.0112 191.223 56.9416C191.072 56.8721 190.956 56.7909 190.852 56.6981C190.759 56.6053 190.678 56.5009 190.643 56.3733C190.597 56.2457 190.574 56.1066 190.574 55.9442C190.574 55.7122 190.62 55.515 190.701 55.3295C190.794 55.1555 190.91 55.0047 191.049 54.8887C191.2 54.7727 191.362 54.68 191.559 54.6104C191.757 54.5524 191.965 54.5176 192.174 54.5176C192.325 54.5176 192.476 54.5292 192.626 54.564C192.777 54.5872 192.916 54.6336 193.044 54.68C193.183 54.7263 193.311 54.7727 193.427 54.8307C193.543 54.8887 193.647 54.9467 193.751 55.0047L193.311 55.8398V55.805Z" fill="white"/>
<path d="M198.24 55.805C198.24 55.805 198.182 55.7586 198.112 55.7122C198.031 55.6658 197.95 55.6194 197.834 55.573C197.718 55.5266 197.602 55.4802 197.474 55.4454C197.347 55.4107 197.208 55.3875 197.08 55.3875C196.721 55.3875 196.535 55.5034 196.535 55.747C196.535 55.8166 196.558 55.8862 196.593 55.9326C196.628 55.979 196.686 56.0254 196.767 56.0602C196.848 56.095 196.941 56.1414 197.057 56.1645C197.173 56.1993 197.301 56.2341 197.463 56.2805C197.672 56.3385 197.857 56.3965 198.031 56.4661C198.205 56.5357 198.344 56.6169 198.46 56.7213C198.576 56.8257 198.669 56.9416 198.727 57.0924C198.797 57.2316 198.82 57.4056 198.82 57.6144C198.82 57.8579 198.774 58.0667 198.681 58.2407C198.588 58.4146 198.472 58.5422 198.31 58.6582C198.159 58.7626 197.985 58.8438 197.788 58.8902C197.59 58.9366 197.382 58.9598 197.173 58.9598C197.011 58.9598 196.848 58.9482 196.686 58.925C196.523 58.9018 196.349 58.867 196.187 58.8206C196.025 58.7742 195.874 58.7162 195.723 58.6466C195.572 58.577 195.433 58.5074 195.306 58.4146L195.746 57.5332C195.746 57.5332 195.816 57.5912 195.909 57.6491C196.002 57.7071 196.106 57.7651 196.245 57.8231C196.384 57.8811 196.523 57.9275 196.697 57.9739C196.86 58.0203 197.022 58.0435 197.196 58.0435C197.556 58.0435 197.73 57.9391 197.73 57.7187C197.73 57.6375 197.706 57.568 197.648 57.5216C197.602 57.4636 197.521 57.4172 197.428 57.3824C197.335 57.336 197.219 57.3012 197.092 57.2664C196.964 57.2316 196.825 57.1852 196.674 57.1388C196.477 57.0808 196.303 57.0112 196.152 56.9416C196.002 56.8721 195.886 56.7909 195.781 56.6981C195.688 56.6053 195.607 56.5009 195.561 56.3733C195.514 56.2457 195.491 56.1066 195.491 55.9442C195.491 55.7122 195.538 55.515 195.619 55.3295C195.7 55.1555 195.828 55.0047 195.967 54.8887C196.117 54.7727 196.28 54.68 196.477 54.6104C196.674 54.5524 196.871 54.5176 197.092 54.5176C197.243 54.5176 197.393 54.5292 197.544 54.564C197.695 54.5872 197.834 54.6336 197.973 54.68C198.112 54.7263 198.24 54.7727 198.356 54.8307C198.472 54.8887 198.576 54.9467 198.681 55.0047L198.24 55.8398V55.805Z" fill="white"/>
<path d="M201.569 54.5176H200.56V58.8902H201.569V54.5176Z" fill="white"/>
<path d="M205.466 58.9247C205.141 58.9247 204.851 58.8667 204.584 58.7392C204.318 58.6116 204.086 58.4492 203.9 58.2404C203.714 58.0317 203.564 57.7997 203.459 57.5329C203.355 57.2662 203.308 56.9878 203.308 56.7094C203.308 56.4311 203.366 56.1411 203.471 55.8743C203.575 55.6076 203.726 55.3756 203.923 55.1668C204.12 54.9697 204.352 54.7957 204.619 54.6797C204.886 54.5637 205.176 54.4941 205.489 54.4941C205.802 54.4941 206.104 54.5521 206.37 54.6797C206.637 54.8073 206.869 54.9697 207.055 55.19C207.24 55.3988 207.391 55.6424 207.495 55.9091C207.6 56.1759 207.646 56.4427 207.646 56.721C207.646 56.9994 207.588 57.2894 207.484 57.5561C207.38 57.8229 207.229 58.0549 207.032 58.2636C206.834 58.4724 206.614 58.6348 206.336 58.7508C206.069 58.8783 205.779 58.9363 205.466 58.9363M204.329 56.721C204.329 56.895 204.352 57.0574 204.399 57.2082C204.445 57.3705 204.515 57.5097 204.619 57.6257C204.712 57.7533 204.839 57.8461 204.979 57.9273C205.118 57.9969 205.28 58.0432 205.477 58.0432C205.675 58.0432 205.837 58.0085 205.976 57.9273C206.115 57.8461 206.243 57.7533 206.336 57.6257C206.428 57.4981 206.498 57.3589 206.544 57.1966C206.591 57.0342 206.614 56.8834 206.614 56.7094C206.614 56.5355 206.591 56.3731 206.544 56.2223C206.498 56.0599 206.428 55.9207 206.324 55.8048C206.22 55.6888 206.104 55.5844 205.965 55.5148C205.825 55.4452 205.663 55.4104 205.477 55.4104C205.28 55.4104 205.118 55.4452 204.979 55.5264C204.839 55.6076 204.723 55.7004 204.619 55.828C204.526 55.9555 204.457 56.0947 204.41 56.2455C204.364 56.4079 204.341 56.5703 204.341 56.7326" fill="white"/>
<path d="M210.395 56.3965V58.8902H209.386V54.5176H210.175L212.205 57.0924V54.5176H213.214V58.8902H212.402L210.395 56.3965Z" fill="white"/>
<path d="M215.464 54.6913H215V55.8164H214.71V54.6913H214.246V54.4014H215.464V54.6913ZM216.855 54.413H217.273V55.828H216.983V54.8189L216.6 55.6308H216.357L215.974 54.8189V55.828H215.684V54.413H216.102L216.473 55.2828L216.844 54.413H216.855Z" fill="white"/>
<path d="M39.3766 39.4399L42.0442 42.8962L44.6771 32.5968L42.6705 31.4834L39.3766 39.4399Z" fill="#DC372A"/>
<path d="M41.3019 30.7061L18.6966 18.0986H11.3781L39.9449 34.0348L41.3019 30.7061Z" fill="#9FC2D7"/>
<path d="M55.1505 22.1469L54.6865 21.0334L51.6246 13.6336C50.9403 11.9055 49.908 11.4879 48.8641 11.4531H47.3216L45.1527 11.4763C44.1436 11.4995 43.9232 12.033 43.8188 12.2418C40.0262 12.5202 41.6499 15.153 41.8703 15.4314L41.8935 15.0718C41.9283 14.2599 42.6822 14.2251 43.1809 14.1903C44.4568 14.1672 45.1411 14.5267 45.5818 14.9442L42.5894 22.1585L46.0341 23.8054L46.7648 21.5669H50.9867L51.7174 23.8054L55.1621 22.1585L55.1505 22.1469ZM46.4285 13.9352L44.6655 12.7405L47.8551 12.2766L46.4285 13.9352ZM48.8641 20.3723H47.136L48.8641 15.037L50.5923 20.3723H48.8641Z" fill="#6493B7"/>
<path d="M52.1581 14.9326L55.1505 22.1585L51.7057 23.8054L50.975 21.5669H48.8641V20.3955H50.5923L48.8641 15.0602V11.4531C49.908 11.4879 50.9286 11.9055 51.6246 13.6336L55.1505 22.1585" fill="#26668E"/>
<path d="M41.2324 21.4392L42.5663 18.1221H35.3057L41.2324 21.4392Z" fill="#6493B7"/>
<path d="M51.6594 33.3975L48.8758 34.8937L46.0805 33.3975L42.9142 45.9933L48.8758 53.6251L54.8257 45.9933L51.6594 33.3975Z" fill="#DC372A"/>
<path d="M54.8257 45.9933L48.8757 53.6251V34.8937L51.6594 33.3975L54.8257 45.9933Z" fill="#B22729"/>
<path d="M58.3632 39.4399L55.6956 42.8962L53.0627 32.5968L55.0693 31.4834L58.3632 39.4399Z" fill="#B22729"/>
<path d="M56.4379 30.7061L79.0432 18.0986H86.3618L57.7949 34.0348L56.4379 30.7061Z" fill="#6493B7"/>
<path d="M77.315 11.7549L48.8757 27.2272L20.4248 11.7549H0L8.29286 16.4174H18.8706L48.8757 33.1655L78.8691 16.4174H89.4469L97.7398 11.7549H77.315Z" fill="#9FC2D7"/>
<path d="M89.447 16.4174H78.8692L48.8757 33.1655V27.2272L77.315 11.7549H97.7398L89.447 16.4174Z" fill="#6493B7"/>
<path d="M56.5074 21.4392L55.1736 18.1221H62.4342L56.5074 21.4392Z" fill="#26668E"/>
<path d="M123.43 12.8564L122.41 10.6411H122.398L121.389 12.8564H123.419H123.43ZM117.933 15.7212L122.12 6.69765C122.155 6.61647 122.247 6.54688 122.352 6.54688H122.479C122.572 6.54688 122.665 6.61647 122.711 6.69765L126.898 15.7212C126.979 15.8952 126.875 16.0692 126.666 16.0692H125.182C124.938 16.0692 124.834 15.988 124.718 15.7328L124.231 14.6774H120.589L120.113 15.7444C120.044 15.9068 119.904 16.0692 119.626 16.0692H118.153C117.956 16.0692 117.84 15.8952 117.921 15.7212" fill="white"/>
<path d="M129.38 6.76736C129.392 6.65138 129.508 6.55859 129.624 6.55859H129.844C129.914 6.55859 130.03 6.61659 130.076 6.69777L133.185 12.4854H133.208L136.316 6.69777C136.362 6.61659 136.478 6.55859 136.548 6.55859H136.757C136.861 6.55859 136.989 6.65138 137 6.76736L138.508 15.7793C138.531 15.9533 138.415 16.0693 138.253 16.0693H136.676C136.56 16.0693 136.432 15.9649 136.42 15.8605L135.817 11.7199H135.794L133.544 16.0577C133.498 16.1389 133.382 16.2085 133.312 16.2085H133.069C132.987 16.2085 132.883 16.1389 132.837 16.0577L130.575 11.7199H130.552L129.96 15.8605C129.949 15.9649 129.844 16.0693 129.705 16.0693H128.128C127.965 16.0693 127.849 15.9533 127.872 15.7793L129.38 6.76736Z" fill="white"/>
<path d="M140.202 6.94071C140.202 6.80153 140.306 6.68555 140.457 6.68555H146.001C146.152 6.68555 146.256 6.80153 146.256 6.94071V8.40211C146.256 8.52969 146.152 8.65728 146.001 8.65728H142.289V10.3158H145.34C145.467 10.3158 145.595 10.4318 145.595 10.571V12.0324C145.595 12.1832 145.479 12.2876 145.34 12.2876H142.289V14.0969H146.001C146.152 14.0969 146.256 14.2129 146.256 14.3521V15.8135C146.256 15.9527 146.152 16.0687 146.001 16.0687H140.457C140.306 16.0687 140.202 15.9527 140.202 15.8135V6.94071Z" fill="white"/>
<path d="M152.264 10.6986C152.809 10.6986 153.285 10.1883 153.285 9.61994C153.285 9.05162 152.821 8.59928 152.264 8.59928H150.281V10.687H152.264V10.6986ZM148.181 6.94071C148.181 6.80153 148.286 6.68555 148.436 6.68555H152.438C154.038 6.68555 155.349 7.98457 155.349 9.58515C155.349 10.8146 154.537 11.812 153.366 12.276L155.198 15.6859C155.291 15.8599 155.198 16.0687 154.966 16.0687H153.18C153.076 16.0687 152.995 15.9991 152.971 15.9527L151.185 12.4036H150.257V15.8251C150.257 15.9643 150.141 16.0803 150.002 16.0803H148.413C148.262 16.0803 148.158 15.9643 148.158 15.8251V6.94071H148.181Z" fill="white"/>
<path d="M157.541 6.68555H159.142C159.281 6.68555 159.397 6.80153 159.397 6.94071V15.8135C159.397 15.9527 159.281 16.0687 159.142 16.0687H157.53C157.39 16.0687 157.274 15.9527 157.274 15.8135V6.94071C157.274 6.80153 157.39 6.68555 157.53 6.68555H157.541Z" fill="white"/>
<path d="M165.846 6.55859C167.18 6.55859 168.177 6.97614 169.082 7.81122C169.198 7.91561 169.198 8.07798 169.093 8.18237L168.049 9.27262C167.957 9.36541 167.806 9.36541 167.713 9.27262C167.214 8.83188 166.565 8.58831 165.904 8.58831C164.396 8.58831 163.282 9.85254 163.282 11.3487C163.282 12.8449 164.407 14.0744 165.915 14.0744C166.542 14.0744 167.226 13.8424 167.701 13.4364C167.794 13.3553 167.968 13.3553 168.049 13.448L169.093 14.5615C169.186 14.6543 169.174 14.8283 169.082 14.921C168.177 15.8025 167.017 16.2201 165.834 16.2201C163.155 16.2201 160.998 14.086 160.998 11.4067C160.998 8.72749 163.155 6.57019 165.834 6.57019" fill="white"/>
<path d="M175.206 12.8564L174.185 10.6411H174.173L173.164 12.8564H175.194H175.206ZM169.708 15.7212L173.895 6.69765C173.93 6.61647 174.023 6.54688 174.127 6.54688H174.255C174.347 6.54688 174.44 6.61647 174.487 6.69765L178.674 15.7212C178.755 15.8952 178.65 16.0692 178.442 16.0692H176.957C176.713 16.0692 176.609 15.988 176.493 15.7328L176.017 14.6774H172.376L171.9 15.7444C171.83 15.9068 171.691 16.0692 171.413 16.0692H169.94C169.743 16.0692 169.638 15.8952 169.708 15.7212Z" fill="white"/>
<path d="M179.752 6.79044C179.752 6.65126 179.868 6.54688 180.007 6.54688H180.344L185.679 11.6966H185.691V6.94122C185.691 6.80204 185.795 6.68606 185.946 6.68606H187.558C187.697 6.68606 187.813 6.80204 187.813 6.94122V15.9648C187.813 16.104 187.697 16.2083 187.558 16.2083H187.338C187.338 16.2083 187.187 16.1736 187.164 16.1388L181.875 10.8151H181.863V15.814C181.863 15.9532 181.759 16.0692 181.608 16.0692H180.019C179.891 16.0692 179.764 15.9532 179.764 15.814V6.79044H179.752Z" fill="white"/>
<path d="M123.233 21.4619C124.567 21.4619 125.564 21.8795 126.469 22.7145C126.585 22.8189 126.585 22.9813 126.481 23.0857L125.437 24.1759C125.344 24.2687 125.193 24.2687 125.1 24.1759C124.602 23.7352 123.952 23.4916 123.291 23.4916C121.783 23.4916 120.67 24.7559 120.67 26.2521C120.67 27.7483 121.795 28.9661 123.303 28.9661C123.929 28.9661 124.613 28.7341 125.089 28.3282C125.182 28.247 125.356 28.247 125.437 28.3398L126.481 29.4532C126.573 29.546 126.562 29.72 126.469 29.8128C125.564 30.6942 124.405 31.1118 123.222 31.1118C120.542 31.1118 118.385 28.9777 118.385 26.2984C118.385 23.6192 120.542 21.4619 123.222 21.4619" fill="white"/>
<path d="M132.338 28.9778C133.811 28.9778 135.017 27.7716 135.017 26.3102C135.017 24.8488 133.811 23.6193 132.338 23.6193C130.865 23.6193 129.67 24.8372 129.67 26.3102C129.67 27.7832 130.876 28.9778 132.338 28.9778ZM132.338 21.4736C135.017 21.4736 137.151 23.6309 137.151 26.3102C137.151 28.9894 135.006 31.1235 132.338 31.1235C129.67 31.1235 127.536 28.9894 127.536 26.3102C127.536 23.6309 129.659 21.4736 132.338 21.4736Z" fill="white"/>
<path d="M138.717 21.8567C138.717 21.7175 138.821 21.6016 138.972 21.6016H140.561C140.689 21.6016 140.816 21.7175 140.816 21.8567V29.0129H144.006C144.157 29.0129 144.261 29.1289 144.261 29.2681V30.7295C144.261 30.8687 144.157 30.9847 144.006 30.9847H138.972C138.821 30.9847 138.717 30.8687 138.717 30.7295V21.8567Z" fill="white"/>
<path d="M145.815 21.8567C145.815 21.7175 145.92 21.6016 146.07 21.6016H147.659C147.787 21.6016 147.914 21.7175 147.914 21.8567V29.0129H151.104C151.255 29.0129 151.359 29.1289 151.359 29.2681V30.7295C151.359 30.8687 151.255 30.9847 151.104 30.9847H146.07C145.92 30.9847 145.815 30.8687 145.815 30.7295V21.8567Z" fill="white"/>
<path d="M152.925 21.8567C152.925 21.7175 153.029 21.6016 153.18 21.6016H158.724C158.875 21.6016 158.979 21.7175 158.979 21.8567V23.3181C158.979 23.4457 158.875 23.5733 158.724 23.5733H155.013V25.2319H158.063C158.191 25.2319 158.318 25.3478 158.318 25.487V26.9484C158.318 27.0992 158.202 27.2036 158.063 27.2036H155.013V29.0129H158.724C158.875 29.0129 158.979 29.1289 158.979 29.2681V30.7295C158.979 30.8687 158.875 30.9847 158.724 30.9847H153.18C153.029 30.9847 152.925 30.8687 152.925 30.7295V21.8567Z" fill="white"/>
<path d="M165.185 21.4619C166.518 21.4619 167.516 21.8795 168.421 22.7145C168.536 22.8189 168.536 22.9813 168.432 23.0857L167.388 24.1759C167.295 24.2687 167.145 24.2687 167.052 24.1759C166.553 23.7352 165.904 23.4916 165.243 23.4916C163.735 23.4916 162.621 24.7559 162.621 26.2521C162.621 27.7483 163.746 28.9661 165.254 28.9661C165.88 28.9661 166.565 28.7341 167.04 28.3282C167.133 28.247 167.307 28.247 167.388 28.3398L168.432 29.4532C168.525 29.546 168.513 29.72 168.421 29.8128C167.516 30.6942 166.356 31.1118 165.173 31.1118C162.494 31.1118 160.336 28.9777 160.336 26.2984C160.336 23.6192 162.494 21.4619 165.173 21.4619" fill="white"/>
<path d="M172.051 23.5733H170.137C169.986 23.5733 169.882 23.4573 169.882 23.3181V21.8567C169.882 21.7291 169.986 21.6016 170.137 21.6016H176.075C176.226 21.6016 176.331 21.7175 176.331 21.8567V23.3181C176.331 23.4573 176.226 23.5733 176.075 23.5733H174.162V30.7295C174.162 30.8571 174.046 30.9847 173.906 30.9847H172.306C172.167 30.9847 172.051 30.8687 172.051 30.7295V23.5733Z" fill="white"/>
<path d="M182.002 28.9778C183.475 28.9778 184.681 27.7716 184.681 26.3102C184.681 24.8488 183.475 23.6193 182.002 23.6193C180.529 23.6193 179.335 24.8372 179.335 26.3102C179.335 27.7832 180.541 28.9778 182.002 28.9778ZM182.002 21.4736C184.681 21.4736 186.816 23.6309 186.816 26.3102C186.816 28.9894 184.67 31.1235 182.002 31.1235C179.335 31.1235 177.2 28.9894 177.2 26.3102C177.2 23.6309 179.323 21.4736 182.002 21.4736Z" fill="white"/>
<path d="M192.522 25.6146C193.067 25.6146 193.543 25.1043 193.543 24.536C193.543 23.9676 193.079 23.5153 192.522 23.5153H190.539V25.603H192.522V25.6146ZM188.439 21.8567C188.439 21.7175 188.544 21.6016 188.695 21.6016H192.696C194.297 21.6016 195.607 22.9006 195.607 24.5012C195.607 25.7306 194.795 26.7281 193.624 27.192L195.456 30.6019C195.549 30.7759 195.456 30.9847 195.224 30.9847H193.45C193.346 30.9847 193.264 30.9151 193.241 30.8687L191.455 27.3196H190.527V30.7411C190.527 30.8803 190.411 30.9963 190.272 30.9963H188.683C188.532 30.9963 188.428 30.8803 188.428 30.7411V21.8683L188.439 21.8567Z" fill="white"/>
<path d="M197.138 29.7084L197.765 28.5949C197.869 28.421 198.124 28.4442 198.217 28.5137C198.275 28.5369 199.238 29.256 200.119 29.256C200.653 29.256 201.035 28.9197 201.035 28.4558C201.035 27.8874 200.571 27.4583 199.655 27.0987C198.507 26.6464 197.057 25.7417 197.057 24.1295C197.057 22.8073 198.089 21.4619 200.142 21.4619C201.534 21.4619 202.601 22.1694 203.007 22.471C203.169 22.5638 203.146 22.8073 203.088 22.9001L202.404 23.9324C202.311 24.0832 202.068 24.1991 201.952 24.1064C201.836 24.0368 200.85 23.3061 200.038 23.3061C199.551 23.3061 199.191 23.6308 199.191 23.9904C199.191 24.4891 199.597 24.8602 200.653 25.2894C201.696 25.7069 203.355 26.5188 203.355 28.3398C203.355 29.72 202.16 31.1118 200.2 31.1118C198.46 31.1118 197.498 30.3927 197.185 30.0795C197.057 29.9403 197.011 29.894 197.115 29.7084" fill="white"/>
<path d="M118.605 36.5166H120.206C120.345 36.5166 120.461 36.6326 120.461 36.7718V45.6445C120.461 45.7837 120.345 45.8997 120.206 45.8997H118.594C118.455 45.8997 118.339 45.7837 118.339 45.6445V36.7718C118.339 36.6326 118.455 36.5166 118.594 36.5166H118.605Z" fill="white"/>
<path d="M123.013 36.6215C123.013 36.4823 123.129 36.3779 123.268 36.3779H123.604L128.939 41.5276H128.951V36.7723C128.951 36.6331 129.055 36.5171 129.206 36.5171H130.807C130.946 36.5171 131.062 36.6331 131.062 36.7723V45.7958C131.062 45.935 130.946 46.0394 130.807 46.0394H130.598C130.598 46.0394 130.447 46.0046 130.424 45.9698L125.135 40.6461H125.124V45.6451C125.124 45.7842 125.019 45.9002 124.868 45.9002H123.279C123.152 45.9002 123.024 45.7842 123.024 45.6451V36.6215H123.013Z" fill="white"/>
<path d="M133.103 44.6245L133.73 43.5111C133.834 43.3371 134.089 43.3603 134.182 43.4299C134.24 43.4531 135.203 44.1722 136.084 44.1722C136.618 44.1722 137 43.8358 137 43.3719C137 42.8036 136.537 42.3744 135.62 42.0149C134.472 41.5625 133.022 40.6579 133.022 39.0573C133.022 37.7351 134.054 36.3896 136.119 36.3896C137.511 36.3896 138.578 37.0971 138.984 37.3987C139.146 37.4915 139.111 37.7351 139.065 37.8278L138.381 38.8601C138.288 39.0109 138.044 39.1269 137.928 39.0341C137.812 38.9645 136.826 38.2338 136.015 38.2338C135.527 38.2338 135.168 38.5586 135.168 38.9181C135.168 39.4168 135.574 39.788 136.629 40.2171C137.673 40.6347 139.332 41.4466 139.332 43.2675C139.332 44.6477 138.137 46.0395 136.177 46.0395C134.437 46.0395 133.475 45.3204 133.161 45.0073C133.022 44.8681 132.987 44.8217 133.092 44.6361" fill="white"/>
<path d="M141.106 36.7718C141.106 36.6326 141.222 36.5166 141.361 36.5166H143.008C143.159 36.5166 143.263 36.6326 143.263 36.7718V42.1998C143.263 43.1393 143.959 43.8932 144.91 43.8932C145.862 43.8932 146.581 43.1393 146.581 42.1998V36.7718C146.581 36.6326 146.685 36.5166 146.836 36.5166H148.483C148.61 36.5166 148.738 36.6326 148.738 36.7718V42.3158C148.738 44.3571 147.021 46.0389 144.91 46.0389C142.8 46.0389 141.106 44.3455 141.106 42.3158V36.7718Z" fill="white"/>
<path d="M154.978 40.5189C155.523 40.5189 155.999 40.0086 155.999 39.4403C155.999 38.8719 155.535 38.4196 154.978 38.4196H152.995V40.5073H154.978V40.5189ZM150.895 36.761C150.895 36.6218 151 36.5059 151.151 36.5059H155.152C156.753 36.5059 158.063 37.8049 158.063 39.4055C158.063 40.6349 157.251 41.6324 156.08 42.0963L157.912 45.5062C158.005 45.6802 157.912 45.889 157.68 45.889H155.906C155.802 45.889 155.72 45.8194 155.697 45.773L153.911 42.2239H152.983V45.6454C152.983 45.7846 152.867 45.9006 152.728 45.9006H151.139C150.988 45.9006 150.884 45.7846 150.884 45.6454V36.7726L150.895 36.761Z" fill="white"/>
<path d="M164.558 42.6875L163.537 40.4722H163.526L162.517 42.6875H164.547H164.558ZM159.061 45.5523L163.248 36.5287C163.282 36.4475 163.375 36.3779 163.48 36.3779H163.607C163.7 36.3779 163.793 36.4475 163.839 36.5287L168.026 45.5523C168.107 45.7262 168.003 45.9002 167.794 45.9002H166.31C166.066 45.9002 165.962 45.819 165.846 45.5639L165.358 44.5084H161.717L161.241 45.5755C161.171 45.7378 161.032 45.9002 160.754 45.9002H159.281C159.084 45.9002 158.979 45.7262 159.049 45.5523" fill="white"/>
<path d="M169.105 36.6215C169.105 36.4823 169.221 36.3779 169.36 36.3779H169.696L175.032 41.5276H175.043V36.7723C175.043 36.6331 175.148 36.5171 175.298 36.5171H176.899C177.038 36.5171 177.154 36.6331 177.154 36.7723V45.7958C177.154 45.935 177.038 46.0394 176.899 46.0394H176.69C176.69 46.0394 176.539 46.0046 176.516 45.9698L171.227 40.6461H171.216V45.6451C171.216 45.7842 171.111 45.9002 170.96 45.9002H169.371C169.244 45.9002 169.116 45.7842 169.116 45.6451V36.6215H169.105Z" fill="white"/>
<path d="M183.348 36.3779C184.681 36.3779 185.679 36.7955 186.584 37.6306C186.7 37.7349 186.7 37.8973 186.595 38.0017L185.551 39.092C185.459 39.1847 185.308 39.1847 185.215 39.092C184.716 38.6512 184.067 38.4076 183.406 38.4076C181.898 38.4076 180.784 39.6719 180.784 41.1681C180.784 42.6643 181.909 43.8937 183.417 43.8937C184.044 43.8937 184.728 43.6617 185.215 43.2558C185.308 43.1746 185.482 43.1746 185.563 43.2674L186.607 44.3808C186.7 44.4736 186.688 44.6476 186.595 44.7404C185.691 45.6219 184.531 46.0394 183.348 46.0394C180.668 46.0394 178.511 43.9053 178.511 41.2261C178.511 38.5468 180.668 36.3895 183.348 36.3895" fill="white"/>
<path d="M188.474 36.7718C188.474 36.6326 188.579 36.5166 188.729 36.5166H194.273C194.424 36.5166 194.528 36.6326 194.528 36.7718V38.2332C194.528 38.3607 194.424 38.4883 194.273 38.4883H190.562V40.1469H193.612C193.751 40.1469 193.867 40.2629 193.867 40.4021V41.8635C193.867 42.0142 193.751 42.1186 193.612 42.1186H190.562V43.928H194.273C194.424 43.928 194.528 44.044 194.528 44.1831V45.6445C194.528 45.7837 194.424 45.8997 194.273 45.8997H188.729C188.579 45.8997 188.474 45.7837 188.474 45.6445V36.7718Z" fill="white"/>
<path d="M109.292 0.701172H108.584V64.7012H109.292V0.701172Z" fill="#9FC1D7"/>
</g>
<defs>
<clipPath id="clip0_4925_7580">
<rect width="217.273" height="64" fill="white" transform="translate(0 0.701172)"/>
</clipPath>
</defs>
</svg>
